<svg width="1056" height="1008" viewBox="0 0 1056 1008" fill="none" xmlns="http://www.w3.org/2000/svg">
<g clip-path="url(#clip0_11253_8513)">
<path d="M471.021 0H489.883C492.389 4.57699 494.946 9.10943 496.973 13.926C500.041 21.2149 510.535 54.4526 517.394 56.6687C521.699 58.0603 526.742 57.0997 531.223 57.672C535.621 51.1351 536.235 48.3438 542.273 41.9433C561.768 21.2796 588.431 21.7243 613.047 12.3462C620.524 9.49845 627.382 4.63193 633.93 0H639.488C644.48 22.0591 641.778 40.478 636.828 62.0232C643.32 62.6038 649.59 64.3656 657.025 64.9946C667.941 46.2882 675.613 21.8247 691.144 5.6846C693.5 3.23217 695.934 1.93939 698.708 0H707.128C711.284 3.19621 715.327 6.06868 717.822 10.8372C729.934 33.9397 738.246 59.1858 749.837 82.5405C754.87 92.6813 760.753 101.373 766.946 110.753C769.73 114.97 776.418 124.477 778.083 128.712C779.47 130.237 786.617 131.338 789.066 132.012C796.311 134.018 803.452 136.38 810.459 139.091C887.344 169.123 932.415 245.031 908.97 327.258C906.551 335.736 902.524 344.099 900.25 352.52C903.427 360.551 906.505 370.113 909.253 378.366C919.426 408.846 928.563 439.953 937.267 470.895C949.884 515.745 963.445 561.294 974.155 606.589C984.163 648.884 992.527 692.267 1001.65 734.783C1012.98 786.121 1023.84 837.563 1034.23 889.097C1037.96 907.246 1041.8 925.38 1045.74 943.488C1050.71 966.664 1055.43 983.803 1054.29 1008H768.281H732.301H720.601H694.129H685.157H583.507H576.134H556.901H545.438H493.027H120.294C118.012 1006.41 105.736 1003.38 101.813 1002.09C96.4714 1000.32 91.2244 998.286 86.0918 995.981C43.2273 976.894 9.88639 935.543 2.78184 889.654C2.09301 885.204 1.71973 876.372 0 872.753V853.974C2.10046 849.102 2.03526 841.848 2.90777 836.532C8.06468 805.132 22.5306 779.903 51.5692 765.585C86.2754 748.477 121.65 753.943 158.348 751.839L161.184 750.731C161.847 740.584 165.97 724.868 168.253 714.623C172.78 693.566 177.626 672.576 182.788 651.663C201.343 572.843 222.01 494.537 244.767 416.826C247.586 407.127 258.504 366.799 262.916 359.956C258.867 349.4 253.945 341.453 249.956 329.146C237.035 288.975 240.475 245.331 259.53 207.68C282.219 163.353 325.758 135.615 373.736 127.463C378.527 126.649 385.521 126.007 389.978 124.421C392.924 117.703 407.563 98.2901 412.751 90.0049C428.578 64.7249 442.643 38.5567 458.991 13.7021C462.666 8.11504 466.316 4.58317 471.021 0Z" fill="#FBD52E"/>
<path d="M471.023 0H489.885C492.391 4.57699 494.948 9.10943 496.975 13.926C500.043 21.2149 510.536 54.4526 517.395 56.6687C521.701 58.0603 526.744 57.0997 531.224 57.672C535.623 51.1351 536.236 48.3438 542.274 41.9433C561.77 21.2796 588.433 21.7243 613.049 12.3462C620.525 9.49845 627.383 4.63193 633.932 0H639.49C644.481 22.0591 641.78 40.478 636.83 62.0232C643.321 62.6038 649.591 64.3656 657.027 64.9946C667.942 46.2882 675.615 21.8247 691.145 5.6846C693.502 3.23217 695.936 1.93939 698.71 0H707.13C711.286 3.19621 715.328 6.06868 717.824 10.8372C729.936 33.9397 738.248 59.1858 749.839 82.5405C754.872 92.6813 760.755 101.373 766.947 110.753C769.732 114.97 776.419 124.477 778.085 128.712C779.472 130.237 786.619 131.338 789.068 132.012C796.312 134.018 803.454 136.38 810.461 139.091C887.346 169.123 932.417 245.031 908.971 327.258C906.553 335.736 902.526 344.099 900.252 352.52C879.684 392.372 848.029 421.061 805.14 435.068C720.495 462.712 624.687 416.401 597.957 330.414C594.724 320.025 592.96 310.76 591.3 300.039C582.318 299.883 573.335 299.893 564.353 300.068C564.137 303.499 563.76 306.633 563.25 310.027C551.354 389.502 473.848 447.347 394.18 442.061C350.345 439.081 309.526 418.682 280.828 385.415C274.05 377.702 268.319 368.668 262.918 359.956C258.869 349.4 253.947 341.453 249.958 329.146C237.037 288.975 240.476 245.331 259.531 207.68C282.221 163.353 325.76 135.615 373.738 127.463C378.529 126.649 385.523 126.007 389.979 124.421C392.925 117.703 407.565 98.2901 412.752 90.0049C428.579 64.7249 442.645 38.5567 458.993 13.7021C462.668 8.11504 466.317 4.58317 471.023 0Z" fill="#372F2D"/>
<path d="M471.02 0H489.882C492.388 4.57699 494.945 9.10943 496.972 13.926C500.04 21.2149 510.534 54.4526 517.393 56.6687C521.698 58.0603 526.741 57.0997 531.222 57.672C535.62 51.1351 536.234 48.3438 542.272 41.9433C561.767 21.2796 588.43 21.7243 613.046 12.3462C620.523 9.49845 627.381 4.63193 633.929 0H639.487C644.479 22.0591 641.777 40.478 636.827 62.0232C643.319 62.6038 649.589 64.3656 657.024 64.9946C667.94 46.2882 675.612 21.8247 691.143 5.6846C693.499 3.23217 695.933 1.93939 698.707 0H707.127C711.283 3.19621 715.326 6.06868 717.821 10.8372C729.933 33.9397 738.245 59.1858 749.836 82.5405C754.869 92.6813 760.752 101.373 766.945 110.753C769.729 114.97 776.417 124.477 778.082 128.712C774.989 129.326 760.964 127.659 756.942 127.449C714.671 125.064 673.204 139.718 641.823 168.135C607.9 199.134 592.818 238.077 590.797 283.288L565.614 283.048C564.119 204.706 517.769 147.439 441.615 128.846C425.554 124.925 406.425 124.18 389.977 124.421C392.923 117.703 407.562 98.2901 412.75 90.0049C428.577 64.7249 442.642 38.5567 458.99 13.7021C462.665 8.11504 466.315 4.58317 471.02 0Z" fill="#FADD18"/>
<path d="M633.93 0H639.488C644.479 22.0591 641.777 40.478 636.827 62.0232C622.73 102.052 584.002 124.307 543.53 108.999C538.446 107.075 533.197 104.733 529.186 100.98C523.122 103.16 504.987 110.228 499.996 105.41C499.314 103.778 499.516 103.629 499.896 101.909C500.365 101.237 501.109 100.21 501.903 99.9658C509.595 97.5992 517.068 96.1111 524.849 93.6192C524.658 79.1303 525.726 71.007 531.222 57.672C535.621 51.1351 536.234 48.3438 542.272 41.9433C561.768 21.2796 588.431 21.7243 613.047 12.3462C620.523 9.49845 627.381 4.63193 633.93 0Z" fill="#7DB75D"/>
<path d="M524.849 93.6192C551.595 82.887 573.56 70.7477 595.155 51.0942C598.599 47.9608 605.766 39.2032 609.757 40.0018C610.402 40.7087 610.819 40.9964 610.505 42.3239C609.767 45.4801 606.668 49.077 604.621 51.3888C593.02 64.5012 577.314 76.6529 562.268 85.5599C552.435 91.382 539.802 96.8557 529.186 100.98C523.122 103.16 504.987 110.228 499.996 105.41C499.314 103.778 499.516 103.629 499.896 101.909C500.365 101.237 501.109 100.21 501.903 99.9658C509.595 97.5992 517.068 96.1111 524.849 93.6192Z" fill="#4A8746"/>
<path d="M370.676 145.142C408.022 135.956 449.182 144.677 482.382 163.731C498.33 172.884 527.651 199.525 532.028 217.205C535.617 224.769 539.598 232.92 542.33 240.824C552.267 269.563 552.081 300.836 541.799 329.454C531.105 359.482 505.868 388.709 478.123 404.186C471.068 409.983 460.284 413.801 451.71 416.996C381.2 443.272 293.928 402.866 268.715 331.188C265.505 323 262.953 315.631 261.134 306.945C253.951 271.392 260.901 234.44 280.511 203.926C300.924 172.778 334.664 152.76 370.676 145.142Z" fill="#FEFEFE"/>
<path d="M370.676 145.142C408.022 135.956 449.182 144.677 482.382 163.731C498.33 172.884 527.651 199.525 532.028 217.205C529.45 215.347 525.66 211.155 523.526 208.68C476.122 153.606 388.265 160.204 344.068 216.165C303.832 267.108 312.77 349.818 365.16 389.921C388.323 407.677 417.626 415.432 446.541 411.455C452.663 410.612 457.881 409.259 463.799 407.712C467.888 406.643 474.174 404.329 478.123 404.186C471.068 409.983 460.284 413.801 451.71 416.996C381.2 443.272 293.928 402.866 268.715 331.188C265.505 323 262.953 315.631 261.134 306.945C253.951 271.392 260.901 234.44 280.511 203.926C300.924 172.778 334.664 152.76 370.676 145.142Z" fill="#FADD18"/>
<path d="M370.676 145.142L370.901 145.896C359.049 161.901 347.43 176.848 336.235 193.444C320.292 217.531 306.154 242.764 293.936 268.938C287.789 282.283 282.694 296.264 277.301 309.898C275.298 314.96 270.928 327.167 268.715 331.188C265.505 323 262.953 315.631 261.134 306.945C253.951 271.392 260.901 234.44 280.511 203.926C300.924 172.778 334.664 152.76 370.676 145.142Z" fill="#FEFEFE"/>
<path d="M443.724 208.522C455.035 207.85 465.825 209.508 476.365 213.565C535.518 236.335 543.201 318.612 495.021 356.741C477.764 370.399 452.414 378.088 430.512 375.259C418.115 373.09 406.385 367.654 396.243 360.276C378.556 347.257 366.779 327.734 363.512 306.017C359.39 278.402 368.543 255.57 384.729 233.936C395.976 246.078 412.226 252.953 421.082 232.267C423.967 225.53 421.097 218.738 417.946 212.531C426.645 210.122 434.806 209.142 443.724 208.522Z" fill="#372F2D"/>
<path d="M621.386 231.829C622.304 227.772 625.315 220.682 627.254 216.996C643.465 186.133 673.387 161.894 706.475 151.287C730.369 143.626 759.347 142.662 783.757 148.46C787.99 149.465 795.008 151.368 798.72 153.27C830.395 161.351 864.034 189.041 880.23 217.289C899.406 250.74 903.351 283.227 893.59 320.478C893.028 322.605 892.43 324.724 891.801 326.832C880.452 362.096 855.563 391.409 822.599 408.326C788.598 426.133 748.864 429.517 712.337 417.715C703.041 414.764 682.735 406.686 676.336 400.335C645.451 386.619 621.835 360.442 611.357 328.313C600.88 296.183 604.525 261.116 621.386 231.829Z" fill="#FEFEFE"/>
<path d="M621.387 231.829C622.305 227.772 625.316 220.682 627.255 216.996C643.466 186.133 673.388 161.894 706.475 151.287C730.369 143.626 759.347 142.662 783.757 148.46C787.99 149.465 795.008 151.368 798.72 153.27C830.395 161.351 864.035 189.041 880.23 217.289C899.407 250.74 903.351 283.227 893.59 320.478C893.028 322.605 892.43 324.724 891.801 326.832C880.452 362.096 855.563 391.409 822.599 408.326C788.599 426.133 748.865 429.517 712.338 417.715C703.041 414.764 682.736 406.686 676.337 400.335C735.061 426.412 803.887 401.286 831.999 343.509C860.106 285.733 837.387 216.076 780.622 185.974C723.857 155.873 653.448 176.149 621.387 231.829Z" fill="#FADD18"/>
<path d="M798.719 153.27C830.394 161.351 864.033 189.041 880.229 217.289C899.405 250.74 903.349 283.227 893.589 320.478C893.027 322.605 892.428 324.723 891.799 326.832C891.005 325.549 888.561 318.178 887.788 316.096C885.828 310.982 883.797 305.895 881.693 300.837C868.194 267.82 854.979 235.342 835.163 205.548C827.867 194.578 820.432 183.913 812.543 173.324C808.449 167.827 801.204 159.285 798.719 153.27Z" fill="#FEFEFE"/>
<path d="M710.796 210.055C735.757 206.949 762.657 218.64 778.915 237.47C793.285 254.27 800.329 276.127 798.467 298.155C796.023 329.449 775.202 358.278 746.059 369.947C731.111 375.933 718.685 376.433 703.01 375.134C685.963 372.835 669.283 364.271 657.006 352.307C641.491 337.31 632.555 316.771 632.158 295.196C631.89 271.866 641.542 250.397 657.769 233.892C665.266 245.133 676.924 253.486 689.913 243.786C694.213 240.563 696.972 235.688 697.518 230.341C698.312 223.14 695.698 218.601 691.475 213.329C698.261 211.563 703.825 210.72 710.796 210.055Z" fill="#372F2D"/>
<path d="M528.129 989.784C514.665 973.321 442.132 881.822 442.833 867.86C442.864 867.251 442.904 867.231 443.082 866.741C449.3 865.493 468.932 898.198 472.811 903.446C495.228 933.79 518.183 967.123 544.32 994.177C548.527 998.719 552.879 1003.3 556.901 1008H545.438C540.004 1003.66 533.048 995.203 528.129 989.784Z" fill="#372F2D"/>
<path d="M735.488 992.64C772.045 956.605 797.084 911.815 825.103 869.375C826.712 866.931 829.594 865.74 832.183 867.54C834.56 875.836 799.771 922.73 793.351 931.459C783.492 945.097 773.427 958.585 763.161 971.918C757.964 978.585 750.147 987.577 745.532 993.903C741.319 998.642 736.993 1003.78 732.301 1008H720.602C725.216 1002.93 730.661 997.58 735.488 992.64Z" fill="#372F2D"/>
<path d="M577.891 983.468C578.577 956.383 579.077 929.299 579.386 902.209C579.52 890.721 579.051 879.053 579.453 867.586C579.567 864.359 580.608 857.718 584.032 856.429C585.187 856.908 585.466 857.455 585.878 858.605C589.111 867.571 586.94 920.461 586.77 933.269C586.657 947.613 586.394 961.957 585.976 976.296C585.79 984.458 586.285 1001.09 583.506 1008H576.133C578.742 1001.16 577.984 990.918 577.891 983.468Z" fill="#372F2D"/>
<path d="M685.158 1008C683.472 999.307 683.678 981.843 683.848 972.908C684.142 959.451 684.364 945.994 684.513 932.531C684.534 919.43 683.987 906.112 684.225 893.005C684.343 886.514 681.26 861.461 687.917 859.249C689.927 859.878 691.531 861.368 691.619 863.59C692.011 873.206 691.737 882.853 691.974 892.479C692.815 926.458 690.546 960.343 692.413 994.3C692.299 999.616 691.959 1003.01 694.13 1008H685.158Z" fill="#372F2D"/>
<path d="M161.182 750.73C162.301 751.592 163.539 752.355 163.793 753.84C165.222 762.208 147.122 871.33 142.616 876.754C142.094 877.383 142.039 877.372 141.462 877.79C139.506 877.434 140.441 877.805 138.748 876.243C137.929 874.078 137.661 870.087 138.112 867.798C144.213 836.831 148.879 805.652 154.114 774.531C155.138 768.436 158.16 757.222 158.346 751.839L161.182 750.73Z" fill="#372F2D"/>
<path d="M528.13 989.784C533.049 995.203 540.004 1003.66 545.439 1008H493.027C495.736 1000.49 501.15 992.568 509.54 990.583C514.747 989.351 524.051 991.176 528.13 989.784Z" fill="#F2B31C"/>
<path d="M692.414 994.301C705.232 985.087 721.526 989.036 735.489 992.64C730.663 997.58 725.218 1002.93 720.603 1008H694.131C691.96 1003.01 692.3 999.616 692.414 994.301Z" fill="#F2B31C"/>
<path d="M577.356 993.125C577.346 989.851 577.14 986.623 577.893 983.468C577.985 990.918 578.743 1001.16 576.134 1008H556.902C552.88 1003.3 548.528 998.719 544.32 994.177C556.577 993.187 565.11 992.924 577.356 993.125Z" fill="#F2B31C"/>
<path d="M732.301 1008C736.993 1003.78 741.319 998.642 745.532 993.904C752.524 996.394 762.099 994.347 766.244 1003.4C766.956 1004.95 767.637 1006.4 768.281 1008H732.301Z" fill="#F2B31C"/>
<path d="M570.349 354.919C573.556 354.62 579.537 354.322 582.528 355.328C588.246 357.252 585.972 362.527 584.761 366.404C596.171 371.358 612.027 375.313 616.25 388.364C622.525 407.75 618.957 433.216 611.016 451.631C605.422 464.6 597.259 471.88 584.338 476.694C580.677 477.798 571.071 476.072 567.363 474.648C556.319 470.411 549.997 461.658 545.202 451.088C536.988 433.002 533.688 406.317 540.128 387.246C544.686 373.735 559.34 372.941 570.256 368.202L570.875 367.93C570.344 363.933 567.266 357.959 570.349 354.919Z" fill="#372F2D"/>
<path d="M570.709 427.472C572.07 427.219 572.797 427.499 574.102 428.027C579.031 430.016 583.981 429.253 589.204 429.9C598.078 430.999 602.574 437.493 607.524 444.201C601.688 455.267 598.46 462.273 586.698 467.841C579.737 469.446 573.906 468.929 567.455 466.219C551.105 459.349 542.803 440.113 562.454 430.537C565.186 429.205 567.847 428.403 570.709 427.472Z" fill="#F86971"/>
<path d="M577.011 374.951C577.831 374.903 578.65 374.865 579.47 374.837C591.206 374.453 591.536 382.244 583.848 389.393C583.363 389.265 582.879 389.132 582.399 388.994C575.381 386.973 565.373 378.909 577.011 374.951Z" fill="#FEFEFE"/>
<path d="M561.695 375.986C564.856 375.763 567.104 375.534 568.527 378.733C568.326 383.737 563.747 387.379 560.282 390.615C547.923 385.441 551.104 380.055 561.695 375.986Z" fill="#FEFEFE"/>
</g>
<defs>
<clipPath id="clip0_11253_8513">
<rect width="1056" height="1008" fill="white"/>
</clipPath>
</defs>
</svg>
