<svg width="684" height="658" viewBox="0 0 684 658" fill="none" xmlns="http://www.w3.org/2000/svg">
<path d="M251.94 83.1163C270.597 59.454 283.077 32.5802 299.936 7.91415C303.791 3.46332 310.441 -3.37761 316.298 1.93444C323.34 8.32225 328.491 35.7384 335.161 39.6777C336.017 40.1833 382.163 38.9387 387.375 39.2658C400.955 40.1203 413.687 43.7076 425.819 44.6956C434.532 29.4774 451.904 -21.1239 468.054 15.4647C473.707 28.2689 478.922 41.2095 484.882 53.9589C490.412 65.7863 498.419 75.3234 504.812 86.213C505.047 86.3293 505.282 86.4448 505.517 86.5611C565.139 98.7696 606.377 153.195 589.199 214.056C587.656 219.524 584.66 226.022 583.353 230.973C597.833 271.326 609.983 316.884 621.704 358.443C631.661 393.746 639.369 433.364 647.107 469.413L664.917 552.619L677.153 612.519C679.345 623.239 685.422 645.955 682.935 655.52C679.558 658.378 659.309 657.327 653.849 657.387C602.093 657.995 549.626 656.24 497.933 657.395C489.444 657.59 480.952 657.59 472.463 657.402C470.062 657.545 467.747 657.733 465.34 657.665C458.104 657.77 451.378 657.958 444.158 657.372C424.139 656.525 397.653 657.29 377.193 657.395L368.718 657.748L362.022 657.725L354.672 657.583L318.162 657.493C314.561 657.162 309.143 657.38 305.395 657.418C290.342 657.568 275.288 657.522 260.237 657.282C212.624 656.33 164.482 657.913 116.825 657.2C101.533 656.975 88.8715 657.755 73.7777 654.147C58.222 650.321 43.816 642.811 31.7786 632.241C13.0097 615.797 1.62879 592.507 0.191114 567.593C-1.09709 548.401 4.07529 524.327 17.2808 510.265C40.444 485.597 73.9975 491.098 102.765 489.531L103.707 488.961C122.092 403.376 144.086 318.607 169.631 234.881C166.994 229.199 164.154 223.148 162.215 217.342C146.836 171.293 163.823 121.096 206.91 97.0779C223.181 88.0075 233.785 86.0487 251.94 83.1163Z" fill="#5DCD62"/>
<path d="M251.941 83.1163C270.598 59.454 283.078 32.5802 299.937 7.91415C303.792 3.46332 310.442 -3.37761 316.299 1.93444C323.341 8.32225 328.492 35.7384 335.162 39.6777C336.018 40.1833 382.164 38.9387 387.376 39.2658C400.956 40.1203 413.688 43.7076 425.82 44.6956C434.533 29.4774 451.905 -21.1239 468.055 15.4647C473.708 28.2689 478.923 41.2095 484.883 53.9589C490.413 65.7863 498.42 75.3234 504.813 86.213C505.048 86.3293 505.283 86.4448 505.518 86.5611C565.14 98.7696 606.378 153.195 589.2 214.056C587.657 219.524 584.661 226.022 583.354 230.973C572.441 250.106 561.83 263.293 542.604 274.731C508.503 295.018 467.872 294.179 433.762 274.576C410.013 260.831 392.774 238.125 385.91 211.552C384.711 207.032 383.464 201.543 383.077 196.921C376.602 196.666 372.209 196.606 365.752 196.992C362.263 225.283 349.505 249.034 326.87 266.654C304.59 283.811 276.483 291.564 248.561 288.258C221.364 284.912 195.298 269.651 178.587 247.992C175.327 243.816 172.336 239.437 169.632 234.881C166.995 229.199 164.155 223.148 162.216 217.342C146.837 171.293 163.824 121.096 206.911 97.0779C223.182 88.0075 233.786 86.0487 251.941 83.1163Z" fill="#37302D"/>
<path d="M251.941 83.1163C270.598 59.454 283.078 32.5802 299.938 7.91415C303.792 3.46332 310.442 -3.37761 316.299 1.93444C323.341 8.32225 328.492 35.7384 335.162 39.6777C336.019 40.1833 382.165 38.9387 387.376 39.2658C400.956 40.1203 413.689 43.7076 425.821 44.6956C434.533 29.4774 451.905 -21.1239 468.055 15.4647C473.708 28.2689 478.923 41.2095 484.883 53.9589C490.413 65.7863 498.421 75.3234 504.813 86.213C499.012 86.4103 491.368 84.9459 485.097 84.9467C427.534 84.9572 383.49 129.715 382.558 186.344L366.51 186.062C365.29 139.293 341.246 104.417 296.08 88.8987C280.756 83.6339 268.048 83.3076 251.941 83.1163Z" fill="#5DCD62"/>
<path d="M240.104 96.4253C265.446 89.8334 300.7 98.2084 320.958 114.412C329.995 121.64 341.241 133.029 344.89 143.978C368.991 189.126 352.722 238.796 309.321 264.613C307.238 266.469 303.524 268.144 300.988 269.283C267.326 284.411 229.7 278.982 201.44 255.397C187.73 243.956 181.034 233.152 173.813 216.773C171.939 211.697 170.589 207.365 169.412 202.088C164.459 179.131 168.727 155.147 181.297 135.31C194.404 114.994 216.692 101.397 240.104 96.4253Z" fill="#FEFEFC"/>
<path d="M240.104 96.4253C265.446 89.8334 300.7 98.2084 320.958 114.412C329.995 121.64 341.241 133.029 344.89 143.978C329.15 125.97 314.696 114.91 289.464 113.217C268.438 111.761 247.715 118.865 232.001 132.915C183.536 175.939 207.944 264.866 274.731 269.662C288.863 270.677 296.606 267.29 309.321 264.613C307.238 266.469 303.524 268.144 300.988 269.283C267.326 284.411 229.7 278.982 201.44 255.397C187.73 243.956 181.034 233.152 173.813 216.773C171.939 211.697 170.589 207.365 169.412 202.088C164.459 179.131 168.727 155.147 181.297 135.31C194.404 114.994 216.692 101.397 240.104 96.4253Z" fill="#5DCD62"/>
<path d="M240.104 96.4253C240.135 96.9136 240.167 97.402 240.197 97.8904C220.376 121.476 203.76 148.462 190.581 176.282C184.424 189.278 180.041 203.854 173.813 216.773C171.939 211.697 170.589 207.365 169.412 202.088C164.459 179.131 168.727 155.147 181.297 135.31C194.404 114.994 216.692 101.397 240.104 96.4253Z" fill="#FEFEFC"/>
<path d="M286.488 137.628C300.812 136.522 315.354 141.806 325.581 151.889C335.586 161.835 341.183 175.381 341.117 189.49C341.038 223.76 315.191 246.67 281.555 246.031C271.547 244.735 262.121 240.593 254.397 234.096C229.553 213.404 229.037 178.423 249.218 154.184C256.508 162.188 266.48 166.485 272.783 152.939C274.748 148.713 272.799 144.342 270.787 140.344C277.121 138.601 280.118 138.23 286.488 137.628Z" fill="#37302D"/>
<path d="M401.17 155.123C405.383 135.188 427.421 113.892 445.525 105.37C467.996 94.6826 493.794 93.3713 517.233 101.726C540.992 109.033 560.858 125.514 572.43 147.519C584.009 169.927 584.336 189.48 577.978 213.111C563.928 260.659 511.306 287.903 464.258 274.369C457.785 272.507 441.059 266.493 437.303 261.52C417.981 252.663 403.158 236.238 396.322 216.108C389.485 195.978 391.239 173.92 401.17 155.123Z" fill="#FEFEFC"/>
<path d="M401.168 155.123C405.381 135.188 427.419 113.892 445.522 105.37C467.994 94.6826 493.791 93.3713 517.23 101.726C540.99 109.033 560.856 125.514 572.427 147.519C584.007 169.927 584.334 189.48 577.975 213.111C563.926 260.659 511.303 287.903 464.256 274.369C457.782 272.507 441.057 266.493 437.301 261.52C475.587 279.068 520.872 262.723 539.134 224.764C557.397 186.806 541.912 141.21 504.313 122.232C466.715 103.253 420.847 117.881 401.168 155.123Z" fill="#5DCD62"/>
<path d="M517.23 101.726C540.99 109.033 560.856 125.514 572.427 147.519C584.007 169.927 584.334 189.48 577.975 213.111C575.323 208.549 571.995 199.179 569.729 193.916C563.869 180.303 557.903 165.291 550.961 152.189C545.709 142.276 537.782 131.186 531.45 121.931C528.577 117.733 518.925 105.529 517.23 101.726Z" fill="#FEFEFC"/>
<path d="M463.455 138.385C466.418 138.153 471.371 138.689 474.265 139.204C487.881 141.58 499.976 149.317 507.845 160.682C534.571 199.077 502.273 254.289 451.846 245.013C412.822 235.66 396.515 191.711 421.282 159.407C422.701 157.556 424.558 155.656 426.144 153.937C430.438 161.113 437.181 166.267 445.635 161.27C448.606 159.515 450.725 156.616 451.497 153.252C452.785 147.867 450.887 145.03 448.177 140.811C454.388 139.158 457.24 138.855 463.455 138.385Z" fill="#37302D"/>
<path d="M341.926 643.487C333.567 632.631 286.267 573.49 286.56 563.873C286.57 563.561 286.681 563.26 286.742 562.954L286.726 564.011L287.841 563.363C295.431 569.972 303.655 584.485 310.081 593.077C323.754 611.364 337.21 630.126 352.885 646.795C355.567 649.526 360.706 654.357 362.023 657.725L354.673 657.583L341.926 643.487Z" fill="#23201D"/>
<path d="M476.096 645.692C497.796 625.07 517.652 591.601 533.822 566.234C535.083 564.255 535.772 563.949 537.889 563.648L539.264 564.882C539.611 573.629 490.997 636.96 482.774 646.292C479.245 650.343 476.361 653.644 472.463 657.402C470.062 657.545 467.747 657.733 465.34 657.665L465.043 657.327C467.488 654.357 473.241 648.67 476.096 645.692Z" fill="#37302D"/>
<path d="M373.996 646.067C374.572 619.091 375.648 592.155 375.064 565.185C375.015 562.933 376.132 559.888 377.174 557.939L378.462 557.109C379.856 558.735 380.231 560.082 380.289 562.281C381.044 591.126 379.806 620.013 379.389 648.858C379.348 651.739 378.531 654.859 377.194 657.395L368.719 657.748C375.109 656.57 373.974 651.716 373.996 646.067Z" fill="#37302D"/>
<path d="M444.159 657.372C440.904 639.938 444.248 617.92 443.262 599.953C442.993 595.046 443.251 588.089 443.209 583.098C443.163 577.593 441.212 562.99 444.531 559.229C446.724 559.125 445.677 558.867 447.65 560.42C448.445 566.42 447.867 573.979 448.191 580.068C449.258 600.034 446.658 626.42 448.512 645.887C448.304 653.682 447.933 657.98 457.371 657.635L465.043 657.327L465.34 657.665C458.104 657.77 451.378 657.958 444.159 657.372Z" fill="#37302D"/>
<path d="M103.709 488.961L105.99 489.755C107.431 492.911 94.8223 569.08 91.8988 571.286L90.4333 570.931C88.3663 567.515 89.4785 564.035 90.245 560.231C94.9303 536.984 97.613 512.601 102.767 489.531L103.709 488.961Z" fill="#37302D"/>
<path d="M341.927 643.487L354.674 657.583L318.164 657.493C321.13 650.013 322.04 648.37 328.667 643.869L341.927 643.487Z" fill="#F4B823"/>
<path d="M448.513 645.887C456.352 641.806 465.976 642.256 474.169 644.964C474.823 645.174 475.467 645.422 476.098 645.692C473.243 648.67 467.489 654.357 465.044 657.327L457.373 657.635C447.935 657.98 448.305 653.682 448.513 645.887Z" fill="#F4B823"/>
<path d="M482.777 646.292C491.428 647.65 495.734 647.8 497.936 657.395C489.446 657.59 480.954 657.59 472.465 657.402C476.363 653.644 479.247 650.343 482.777 646.292Z" fill="#F4B823"/>
<path d="M352.887 646.795C361.407 646.63 365.138 644.079 373.998 646.067C373.976 651.716 375.111 656.57 368.721 657.748L362.025 657.725C360.708 654.357 355.569 649.526 352.887 646.795Z" fill="#F4B823"/>
<path d="M369.009 232.603C373.149 232.475 378.429 231.241 380.316 235.331C380.029 236.079 378.717 239.606 379.136 239.862C386.712 244.491 395.161 244.057 399.042 253.812C403.278 264.463 400.914 283.099 396.384 293.419C392.066 303.257 387.665 307.864 378.023 311.724C366.163 311.511 358.732 306.909 353.571 295.777C347.897 283.537 345.627 266.374 349.89 253.356C352.889 244.2 362.21 244.55 369.984 240.839C370.079 236.982 367.826 238.108 369.009 232.603Z" fill="#37302D"/>
<path d="M370.734 279.214C379.024 283.918 383.218 275.131 393.435 290.294C389.472 297.808 387.382 302.553 379.305 306.006C361.114 309.081 343.791 285.841 370.734 279.214Z" fill="#F76E75"/>
<path d="M373.425 245.606C376.067 245.363 376.702 245.281 379.3 245.727C381.661 247.535 381.104 246.573 381.676 249.206C380.978 251.955 380.35 252.439 378.421 254.575C374.31 254.268 370.864 252.298 370.316 247.893C371.453 245.777 370.71 246.451 373.425 245.606Z" fill="#FEFEFC"/>
<path d="M363.46 246.118L366.955 246.178L368.144 247.475C368.389 251.052 365.191 253.559 362.659 255.581C359.656 254.128 357.937 253.496 357.672 250.09C359.113 247.63 360.783 247.284 363.46 246.118Z" fill="#FEFEFC"/>
</svg>
