<svg width="1056" height="1008" viewBox="0 0 1056 1008" fill="none" xmlns="http://www.w3.org/2000/svg">
<g clip-path="url(#clip0_11253_8514)">
<path d="M471.657 0H486.801C501.506 18.458 501.947 38.9222 514.458 58.0361C515.893 60.2304 528.103 59.3452 531.264 59.7308C532.553 57.8803 534.837 51.9313 536.018 49.5759C537.828 45.966 539.39 43.9789 541.829 40.8497C559.221 18.5343 582.739 13.1936 608.938 7.54721C616.012 6.02268 625.644 3.77044 631.991 0.354514L632.641 0H651.405C653.085 23.17 651.936 42.2868 644.567 64.3826C647.424 64.8843 654.106 66.7507 656.597 65.5958C664.187 62.0778 679.821 -1.08181 703.978 1.8411C708.469 2.38476 712.016 5.79221 714.615 9.2638C721.901 19.0087 725.866 31.5847 730.434 42.7431C735.271 54.5496 740.2 66.2733 745.98 77.6531C750.997 87.532 756.267 97.3697 762.233 106.714C767.415 114.839 773.288 122.575 777.923 131.034C782.239 132.922 788.215 134.123 792.84 135.491C798.827 137.315 804.72 139.408 810.516 141.764C889.123 173.299 930.667 245.062 907.629 328.883C905.288 337.393 901.039 346.181 898.941 354.103C902.72 361.143 905.933 371.378 908.408 379.167C913.342 394.696 917.931 410.348 922.814 425.914C953.128 522.5 975.954 620.294 997.317 719.135C1008.31 769.313 1018.97 819.563 1029.32 869.881C1033.39 889.577 1037.61 909.242 1041.98 928.876C1047.32 953.027 1055.6 983.643 1053.84 1008H767.235H731.904H720.029H692.933H684.415H583.373H576.036H557.236H544.469H493.617H120.184C117.75 1006.39 106.071 1003.56 102.399 1002.39C53.2548 986.618 12.8213 945.633 3.17412 894.217C2.0983 888.484 1.87596 880.085 0 874.815V852.985C1.80997 849.7 2.29777 840.12 2.95797 835.929C7.9515 804.209 25.7528 777.439 55.5199 764.435C80.4287 753.556 105.745 752.494 132.48 752.566C140.768 752.607 149.775 752.365 157.964 753.092C159.066 751.932 159.927 751.427 161.223 750.493C161.55 742.368 165.454 726.276 167.296 717.98C170.978 700.748 174.897 683.568 179.05 666.44C197.68 587.713 218.275 509.466 240.816 431.768C244.436 418.942 257.446 368.77 262.644 361.289C262.027 358.529 255.365 343.926 253.85 340.379C249.2 329.383 245.927 317.855 244.107 306.056C237.753 266.228 246.665 223.498 270.546 190.731C292.295 161.272 323.582 140.26 359.081 131.275C371.401 128.18 378.047 128.078 389.771 126.245C396.039 111.827 409.869 97.0016 418.716 82.6911C433.114 59.4034 444.5 35.3298 459.833 12.7259C463.303 7.61068 466.833 3.82489 471.657 0Z" fill="#FBD52E"/>
<path d="M471.657 0H486.801C501.507 18.458 501.947 38.9222 514.459 58.036C515.894 60.2304 528.104 59.3452 531.264 59.7308C532.554 57.8803 534.838 51.9313 536.019 49.5759C537.828 45.966 539.391 43.9789 541.83 40.8497C559.222 18.5343 582.739 13.1936 608.938 7.54721C616.013 6.02268 625.645 3.77044 631.992 0.354514L632.642 0H651.405C653.086 23.17 651.936 42.2868 644.568 64.3826C647.424 64.8843 654.107 66.7507 656.597 65.5958C664.187 62.0778 679.821 -1.08181 703.978 1.8411C708.469 2.38476 712.017 5.79221 714.616 9.2638C721.901 19.0087 725.867 31.5847 730.435 42.7431C735.272 54.5496 740.201 66.2733 745.981 77.6531C750.998 87.532 756.268 97.3697 762.234 106.714C767.416 114.839 773.289 122.575 777.924 131.034C782.24 132.922 788.216 134.123 792.841 135.491C798.827 137.315 804.721 139.408 810.517 141.764C889.124 173.299 930.668 245.062 907.63 328.883C905.289 337.393 901.04 346.181 898.941 354.103C882.513 384.473 862.115 407.889 831.353 424.617C782.936 450.945 722.68 450.461 674.345 424.15C636.447 403.951 608.32 369.302 596.336 328.066C593.5 318.39 592.614 310.9 590.706 301.139C582.028 301.092 573.252 300.957 564.589 301.304C559.665 331.378 552.091 355.211 533.126 379.907C497.323 426.537 435.109 450.809 377.097 441.052C334.671 433.66 296.861 409.86 271.851 374.802C268.739 370.327 265.67 365.823 262.645 361.289C262.028 358.529 255.365 343.926 253.851 340.379C249.201 329.383 245.928 317.855 244.107 306.056C237.753 266.227 246.665 223.498 270.546 190.731C292.296 161.272 323.583 140.26 359.082 131.275C371.401 128.18 378.048 128.078 389.772 126.245C396.04 111.827 409.87 97.0016 418.717 82.6911C433.114 59.4034 444.5 35.3298 459.834 12.7259C463.304 7.61068 466.834 3.82489 471.657 0Z" fill="#38302D"/>
<path d="M471.655 0H486.799C501.504 18.458 501.945 38.9222 514.456 58.0361C515.891 60.2304 528.101 59.3452 531.262 59.7308C532.551 57.8803 534.836 51.9313 536.016 49.5759C537.826 45.966 539.388 43.9789 541.827 40.8497C559.219 18.5343 582.737 13.1936 608.936 7.54721C616.01 6.02268 625.642 3.77044 631.99 0.354514L632.639 0H651.403C653.084 23.17 651.934 42.2868 644.566 64.3826C647.422 64.8843 654.105 66.7507 656.595 65.5958C664.185 62.0778 679.819 -1.08181 703.976 1.8411C708.467 2.38476 712.015 5.79221 714.613 9.2638C721.899 19.0087 725.864 31.5847 730.433 42.7431C735.269 54.5496 740.199 66.2733 745.979 77.6531C750.996 87.532 756.265 97.3697 762.231 106.714C767.413 114.839 773.286 122.575 777.922 131.034C729.412 122.378 679.974 135.658 642.782 167.968C618.367 188.922 601.459 217.272 594.627 248.711C592.029 261.08 591.25 272.112 590.363 284.664C582.02 284.694 573.672 284.637 565.33 284.493C564.061 239.414 551.196 202.872 518 170.724C492.368 145.901 457.77 131.434 422.595 127.191C412.782 126.007 399.747 126.041 389.77 126.245C396.037 111.827 409.868 97.0016 418.715 82.6911C433.112 59.4034 444.498 35.3298 459.832 12.7259C463.301 7.61068 466.831 3.82489 471.655 0Z" fill="#FBD426"/>
<path d="M632.64 0H651.403C653.084 23.17 651.934 42.2868 644.566 64.3826C629.757 106.766 580.974 128.436 539.111 114.094C536.074 117.862 532.268 127.474 526.993 126.649C522.538 122.434 530.226 113.516 532.856 108.873C526.194 93.5223 527.22 75.582 531.263 59.7308C532.552 57.8803 534.836 51.9313 536.017 49.5759C537.827 45.966 539.389 43.9789 541.828 40.8497C559.22 18.5343 582.738 13.1936 608.937 7.54721C616.011 6.02268 625.643 3.77044 631.99 0.354514L632.64 0Z" fill="#7BB96E"/>
<path d="M532.856 108.873C549.021 82.6168 570.383 59.9428 595.633 42.2438C599.305 39.6216 609.653 32.2055 613.706 32.7561C615.088 33.8979 614.577 33.1892 615.103 35.0769C613.572 38.6375 602.558 46.2626 598.892 49.1052C592.88 53.8319 587.053 58.7961 581.438 63.9866C563.763 80.459 552.347 94.0059 539.111 114.094C536.074 117.862 532.268 127.474 526.993 126.649C522.538 122.434 530.226 113.516 532.856 108.873Z" fill="#4D804D"/>
<path d="M372.872 145.703C413.641 137.995 455.803 146.803 490.076 170.189C507.775 182.275 524.861 199.616 532.595 219.913C536.344 228.847 540.123 236.803 542.99 246.115C552.153 275.336 550.925 306.826 539.515 335.245C527.449 364.817 504.205 388.713 477.205 405.193C473.48 408.253 467.684 411.17 463.251 413.054C426.693 428.594 388.978 430.852 351.666 415.846C320.962 403.496 295.697 382.533 278.808 353.896C274.82 347.134 271.853 339.92 268.806 332.708C235.794 248.185 283.834 162.997 372.872 145.703Z" fill="#FEFEFE"/>
<path d="M372.872 145.703C413.641 137.995 455.803 146.803 490.076 170.189C507.775 182.275 524.861 199.616 532.595 219.913C530.713 218.928 530.378 218.2 529.063 216.625C514.095 198.664 494.111 182.739 471.285 176.452C421.025 162.606 363.961 182.594 336.733 227.889C319.221 257.403 314.175 292.673 322.711 325.912C330.495 356.128 349.62 382.898 376.33 399.036C403.366 415.372 435.741 416.15 465.415 407.888C468.184 407.117 474.491 405.344 477.205 405.193C473.48 408.253 467.684 411.17 463.251 413.054C426.693 428.594 388.978 430.852 351.666 415.846C320.962 403.496 295.697 382.533 278.808 353.896C274.82 347.134 271.853 339.92 268.806 332.708C235.794 248.185 283.834 162.997 372.872 145.703Z" fill="#FBD426"/>
<path d="M268.806 332.708C235.794 248.185 283.834 162.997 372.872 145.703C342.216 180.462 308.365 235.954 289.982 278.685C285.632 288.998 281.496 299.402 277.58 309.888C275.883 314.426 270.726 329.943 268.806 332.708Z" fill="#FEFEFE"/>
<path d="M445.705 209.554C468.914 207.753 490.6 218.788 505.54 236.132C520.143 253.311 527.403 275.544 525.753 298.03C524.062 320.332 512.571 342.539 495.482 356.918C475.931 373.367 455.928 378.349 430.833 376.202C374.254 366.84 346.301 303.201 371.641 253.109C375.174 246.125 379.413 240.911 384.365 234.958C394.257 245.77 409.925 254.589 420.307 236.046C423.825 229.764 421.327 220.434 418.483 213.951C428.682 211.213 435.395 210.154 445.705 209.554Z" fill="#38302D"/>
<path d="M618.957 236.223C619.766 228.726 625.51 219.282 629.352 212.814C663.919 154.651 734.22 132.023 797.147 154.33C835.726 167.882 866.044 190.304 884.375 227.992C898.9 257.849 900.834 295.943 890.722 327.563C880.807 362.127 855.417 390.962 824.201 408.241C790.907 426.72 751.622 431.186 715.028 420.654C704.53 417.587 677.279 407.143 671.453 399.336C642.433 385.113 620.447 359.698 610.542 328.934C600.642 298.169 603.679 264.702 618.957 236.223Z" fill="#FEFEFE"/>
<path d="M618.957 236.223C619.767 228.726 625.511 219.282 629.352 212.814C663.92 154.651 734.22 132.023 797.147 154.33C835.726 167.882 866.045 190.304 884.375 227.992C898.9 257.849 900.834 295.943 890.722 327.563C880.807 362.127 855.417 390.962 824.202 408.241C790.908 426.72 751.622 431.186 715.028 420.654C704.53 417.587 677.279 407.143 671.453 399.336C729.961 428.012 800.653 404.306 830.044 346.154C859.434 288.003 836.592 217.03 778.801 186.933C721.01 156.836 649.76 178.807 618.957 236.223Z" fill="#FBD426"/>
<path d="M797.145 154.33C835.724 167.882 866.042 190.304 884.373 227.992C898.898 257.849 900.832 295.943 890.72 327.563C889.735 326.314 884.703 312.731 883.687 310.291C877.489 295.424 871.652 280.036 865.135 265.328C855.879 244.708 845.227 224.744 833.254 205.576C824.937 192.451 816.078 179.68 806.694 167.294C804.987 165.016 797.562 156.242 797.145 154.33Z" fill="#FEFEFE"/>
<path d="M712.858 211.106C766.756 208.375 804 254.764 795.868 307.114C792.29 329.106 780.24 348.821 762.301 362.041C742.331 376.642 722.036 379.418 697.874 375.684C683.034 372.158 668.385 364.969 657.175 354.531C641.676 340.017 632.539 319.962 631.771 298.741C630.966 273.282 640.309 252.787 657.382 234.513C660.754 240.353 665.023 246.258 671.711 248.543C681.302 251.822 693.749 243.818 696.719 234.625C698.931 227.779 694.496 220.369 691.33 214.524C698.24 211.87 705.562 211.461 712.858 211.106Z" fill="#38302D"/>
<path d="M734.31 992.8L734.939 992.207C743.04 984.504 754.162 969.185 760.994 959.956C775.189 940.745 789.188 921.394 802.997 901.905C810.122 891.845 817.104 881.451 824.441 871.531C825.854 869.623 827.922 867.473 830.345 867.313C833.702 871.629 822.327 886.034 819.868 890.015C802.744 917.734 783.717 944.127 764.129 970.144C757.931 978.379 750.918 986.262 744.452 994.336C740.193 999.199 736.429 1003.4 731.902 1008H720.027C724.745 1002.9 729.51 997.827 734.31 992.8Z" fill="#38302D"/>
<path d="M527.875 990.382C514.177 973.13 445.438 884.859 441.402 868.767C441.676 867.983 441.584 867.643 442.393 867.236C443.486 866.684 445.42 866.498 446.586 866.978C448.891 867.927 462.782 890.087 465.549 894.16C489.357 929.221 514.888 963.978 544.019 994.837C548.413 998.956 553.399 1003.42 557.235 1008H544.468C538.765 1002.39 533.532 996.131 527.875 990.382Z" fill="#38302D"/>
<path d="M684.416 1008C683.013 1001.79 682.812 991.372 682.797 984.834C682.709 950.892 684.24 916.971 683.106 883.029C682.967 878.806 682.008 861.497 686.148 859.77C693.681 863.131 691.629 891.34 691.619 898.564C691.609 904.586 691.408 911.454 691.346 917.512C691.212 940.193 691.284 962.869 691.552 985.551C691.469 992.955 691.103 1000.8 692.934 1008H684.416Z" fill="#38302D"/>
<path d="M577.402 977.817L579.397 894.109C579.547 887.215 578.278 861.136 581.166 856.831L582.197 856.3C588.946 858.971 586.77 885.22 586.734 892.129C586.605 911.222 586.317 930.309 585.873 949.392C585.595 963.462 586.337 995.564 583.372 1008H576.035C578.165 998.219 577.484 987.886 577.402 977.817Z" fill="#38302D"/>
<path d="M157.965 753.092C159.068 751.932 159.929 751.427 161.225 750.493C164.455 754.592 164.358 755.16 163.639 760.64C162.307 770.793 160.515 781.053 158.85 791.164C156.216 807.627 153.402 824.059 150.406 840.456C149.303 846.431 144.981 875.465 142.003 878.775L140.858 879.038C139.719 878.265 139.213 877.527 138.921 876.192C136.45 864.869 154.682 773.19 157.965 753.092Z" fill="#38302D"/>
<path d="M527.877 990.382C533.533 996.131 538.767 1002.39 544.47 1008H493.617C494.108 1004.87 496.079 1001.41 497.767 998.838C503.184 990.593 512.493 989.789 521.411 990.557C523.149 990.702 526.366 990.928 527.877 990.382Z" fill="#D19D13"/>
<path d="M691.55 985.551C692.112 988.954 692.04 991.588 692.055 995.028C703.188 986.2 721.781 988.201 734.311 992.8C729.51 997.827 724.746 1002.9 720.028 1008H692.932C691.101 1000.8 691.468 992.955 691.55 985.551Z" fill="#D19D13"/>
<path d="M576.901 994.125C576.88 989.763 576.664 981.813 577.401 977.817C577.484 987.886 578.164 998.219 576.035 1008H557.235C553.399 1003.42 548.413 998.956 544.02 994.837C547.892 994.764 552.955 993.831 557.271 993.651C564.284 993.352 569.94 993.687 576.901 994.125Z" fill="#D19D13"/>
<path d="M731.902 1008C736.43 1003.4 740.194 999.199 744.453 994.336C755.735 996.389 762.381 995.476 767.233 1008H731.902Z" fill="#D19D13"/>
<path d="M575.727 355.972C590.603 354.607 588.339 363.007 581.131 371.534C581.342 383.348 586.524 419.814 606.531 399.424C608.903 397.008 610.583 393.781 613.662 392.125C619.138 392.075 616.204 401.819 613.677 404.775C603.045 417.197 588.649 414.192 578.934 402.573L577.955 401.465C574.345 401.304 568.235 409.213 563.445 411.172C558.614 413.777 555.803 412.943 550.817 411.85C545.078 410.593 534.302 399.125 536.56 393.194C539.953 390.986 542.304 393.674 544.846 395.972C568.694 417.533 572.881 392.641 572.298 372.199C568.158 365.894 565.616 363.831 569.205 356.651L575.727 355.972Z" fill="#38302D"/>
</g>
<defs>
<clipPath id="clip0_11253_8514">
<rect width="1056" height="1008" fill="white"/>
</clipPath>
</defs>
</svg>
