<svg width="735" height="693" viewBox="0 0 735 693" fill="none" xmlns="http://www.w3.org/2000/svg">
<path d="M449.219 0C452.151 15.4901 451.785 36.4037 445.962 51.1133C453.527 51.9506 455.307 52.6116 458.893 44.3934C467.191 25.3675 483.585 -13.8691 500.022 25.9769C505.967 40.5213 512.331 56.9231 520.342 70.7093C525.14 79.3116 531.886 87.8124 536.402 96.251C541.109 98.8746 552.85 101.238 558.741 103.637C588.236 115.638 613.577 137.699 623.665 168.649C629.381 186.151 629.249 208.884 624.956 226.779C623.235 233.945 620.547 240.204 618.576 247.129C622.396 254.699 624.898 263.438 627.496 271.524C630.566 281.115 633.701 290.688 636.883 300.242C652.555 347.376 666.686 395.007 679.255 443.059C689.981 482.072 700.181 521.224 709.845 560.508L724.725 620.907C727.753 633.498 730.76 645.697 732.911 658.501C735.621 674.6 736.434 690.82 714.934 691.155C705.531 691.304 695.74 691.192 686.252 691.16L633.706 691.06C600.62 691.086 563.092 692.08 530.516 690.905C519.391 692.287 504.357 693.737 493.291 691.564C488.08 692.898 486.332 693.142 481.683 690.82C478.921 691.251 475.792 691.251 472.987 691.203C448.629 690.783 424.112 691.708 399.775 691.097C396.938 690.985 393.421 691.113 390.563 691.23C378.945 691.697 367.31 690.9 355.735 690.89C321.225 691.501 285.483 691.028 250.884 691.038L107.149 691.155C99.6827 691.118 89.4476 691.123 82.271 689.79C28.4564 679.775 -7.24998 634.274 1.25002 579.444C10.6733 518.663 60.2188 515.985 109.556 517.568L112.713 516.102C112.133 510.396 119.623 482.965 121.438 475.893C134.335 425.632 149.085 375.075 164.344 325.528C168.169 313.105 183.293 257.992 187.752 252.202C186.836 249.21 183.853 243.052 182.516 239.845C178.835 231.087 176.29 221.893 174.943 212.489C171.216 185.015 177.835 156.021 195.013 134.091C209.354 115.783 230.731 102.041 253.324 96.5422C260.035 94.909 267.39 93.9925 274.248 93.094C277.477 83.0955 290.525 68.0868 296.571 57.3842C303.868 44.5905 310.73 31.8217 318.54 19.3261C338.446 -12.5249 345.257 17.8995 352.643 36.2539C354.117 40.0011 355.889 43.6251 357.934 47.0913C361.706 47.5748 365.324 47.3442 369.489 47.9494C371.39 44.4269 373.983 38.7053 376.124 35.6795C382.711 26.3525 393.506 20.2256 404.28 17.0516C414.459 14.0513 425.583 13.0695 435.162 8.85094C439.608 6.89469 445.117 2.82918 449.219 0Z" fill="#FAD226"/>
<path d="M449.219 0C452.151 15.4901 451.785 36.4037 445.962 51.1133C453.527 51.9506 455.307 52.6116 458.893 44.3934C467.191 25.3675 483.585 -13.8691 500.022 25.9769C505.967 40.5213 512.331 56.9231 520.343 70.7093C525.14 79.3116 531.887 87.8124 536.402 96.251C541.109 98.8746 552.85 101.238 558.741 103.637C588.236 115.638 613.577 137.699 623.665 168.649C629.382 186.151 629.249 208.884 624.956 226.779C623.235 233.945 620.547 240.204 618.576 247.129C604.169 274.624 583.375 293.686 553.424 303.032C524.502 312.021 493.174 308.986 466.516 294.61C441.08 281.221 422.099 258.155 413.859 230.613C411.899 224.173 410.655 217.856 409.386 211.268L391.669 211.178C388.917 239.084 375.141 264.735 353.395 282.436C331.261 300.171 299.411 310.465 271.068 307.07C242.353 303.63 215.109 288.371 197.044 265.719C193.702 261.529 190.66 256.703 187.752 252.202C186.837 249.21 183.854 243.052 182.516 239.845C178.835 231.087 176.29 221.893 174.943 212.489C171.216 185.015 177.836 156.021 195.014 134.091C209.354 115.783 230.732 102.041 253.325 96.5422C260.035 94.909 267.391 93.9925 274.248 93.094C277.477 83.0955 290.525 68.0868 296.572 57.3842C303.868 44.5905 310.73 31.8217 318.54 19.3261C338.446 -12.5249 345.257 17.8995 352.643 36.2539C354.117 40.0011 355.889 43.6251 357.934 47.0913C361.706 47.5748 365.324 47.3442 369.489 47.9494C371.391 44.4269 373.983 38.7053 376.124 35.6795C382.712 26.3525 393.507 20.2256 404.28 17.0516C414.459 14.0513 425.584 13.0695 435.162 8.85094C439.609 6.89469 445.118 2.82918 449.219 0Z" fill="#3B3230"/>
<path d="M449.22 0C452.153 15.4901 451.786 36.4037 445.964 51.1133C453.529 51.9506 455.309 52.6116 458.894 44.3934C467.193 25.3675 483.587 -13.8691 500.024 25.9769C505.968 40.5213 512.333 56.9231 520.344 70.7093C525.141 79.3116 531.888 87.8124 536.404 96.251C482.105 85.6994 425.208 119.32 412.654 174.384C410.758 182.708 410.147 191.493 409.334 199.998L392.005 199.959C391.978 198.693 391.952 197.427 391.914 196.162C391.086 166.949 381.327 142.596 359.923 122.466C342.517 106.322 320.404 96.1676 296.815 93.4877C288.686 92.601 282.347 92.8337 274.25 93.094C277.479 83.0955 290.526 68.0868 296.573 57.3842C303.87 44.5905 310.732 31.8217 318.541 19.3261C338.448 -12.5249 345.258 17.8995 352.645 36.2539C354.119 40.0011 355.89 43.6251 357.936 47.0913C361.708 47.5748 365.325 47.3442 369.49 47.9494C371.392 44.4269 373.985 38.7053 376.126 35.6795C382.713 26.3525 393.508 20.2256 404.282 17.0516C414.461 14.0513 425.585 13.0695 435.163 8.85094C439.61 6.89469 445.119 2.82918 449.22 0Z" fill="#FAD226"/>
<path d="M449.217 0C452.15 15.4901 451.783 36.4037 445.961 51.1133C440.765 65.3708 431.351 75.5446 417.539 81.9824C404.162 88.1912 388.942 89.1247 374.906 84.5964C372.871 87.1945 370.295 93.1541 366.146 92.8518L365.625 91.8736C365.976 87.169 367.793 85.1543 370.343 81.1578C365.524 71.6273 366.693 57.9447 369.487 47.9494C371.389 44.4269 373.982 38.7053 376.123 35.6795C382.71 26.3525 393.505 20.2256 404.279 17.0516C414.458 14.0513 425.582 13.0695 435.16 8.85094C439.607 6.89469 445.116 2.82918 449.217 0Z" fill="#7CB66D"/>
<path d="M370.343 81.1578C382.768 63.0107 394.822 47.9282 413.289 35.5117C415.642 33.9263 422.41 29.5425 425.263 30.1933C425.364 34.2456 411.631 43.3505 408.401 46.2285C398.578 54.9844 380.059 72.8228 374.906 84.5964C372.871 87.1945 370.295 93.1541 366.146 92.8518L365.625 91.8736C365.976 87.169 367.793 85.1543 370.343 81.1578Z" fill="#50804F"/>
<path d="M260.837 104.78C304.377 94.6418 349.212 115.542 369.447 155.409C392.301 200.444 376.831 255.482 333.859 282.008C308.815 297.467 278.113 300.733 250.378 290.889C222.643 281.045 200.869 259.153 191.172 231.364C182.092 205.341 184.496 176.685 197.785 152.539C211.073 128.392 233.995 111.03 260.837 104.78Z" fill="#FDFDFC"/>
<path d="M260.837 104.78C304.377 94.6418 349.212 115.542 369.447 155.409C367.295 153.719 365.532 151.632 363.704 149.603C346.043 130.029 324.184 121.661 297.561 124.243C276.792 126.163 257.63 136.24 244.276 152.265C202.779 202.758 233.056 288.384 302.121 287.918C310.041 287.865 317.61 286.417 325.233 284.28C327.542 283.633 331.684 282.216 333.859 282.008C308.815 297.467 278.113 300.733 250.378 290.889C222.643 281.045 200.869 259.153 191.172 231.364C182.092 205.341 184.496 176.685 197.785 152.539C211.073 128.392 233.995 111.03 260.837 104.78Z" fill="#FAD226"/>
<path d="M191.172 231.364C182.092 205.341 184.496 176.684 197.785 152.538C211.073 128.392 233.995 111.03 260.837 104.78C255.909 110.356 251.563 116.542 247.197 122.57C230.701 144.923 216.782 169.066 205.705 194.543C202.735 201.491 199.903 208.497 197.21 215.557C196.298 217.997 192.209 229.858 191.172 231.364Z" fill="#FDFDFC"/>
<path d="M307.604 149.175C322.92 147.206 338.543 153.196 349.238 164.169C360.049 175.415 365.952 190.496 365.643 206.093C365.266 222.225 358.126 237.149 346.4 248.143C333.879 259.883 319.184 262.636 302.671 262.191C292.635 260.656 284.53 257.716 276.489 251.277C264.357 241.475 256.711 227.178 255.292 211.646C253.574 194.095 258.941 179.667 269.913 166.245C276.37 173.827 287.398 179.172 293.808 167.516C296.479 162.661 294.405 156.969 292.665 152.086C297.537 150.626 302.541 149.651 307.604 149.175Z" fill="#3B3230"/>
<path d="M430.072 165.206C430.359 163.939 430.736 162.695 431.198 161.481C432.93 156.851 435.916 151.817 438.598 147.676C462.011 111.563 509.605 96.4047 549.768 111.948C574.12 119.19 594.632 135.737 606.866 158.003C617.534 177.61 620.631 203.502 614.309 224.932C613.858 226.442 613.374 227.944 612.864 229.436C606.973 251.572 590.18 271.027 570.63 282.462C547.908 295.797 520.777 299.436 495.346 292.561C486.305 290.108 472.604 284.473 465.421 278.334C445.069 268.709 429.673 251.008 422.958 229.518C416.243 208.028 418.82 184.708 430.072 165.206Z" fill="#FDFDFC"/>
<path d="M430.07 165.206C430.357 163.939 430.734 162.695 431.197 161.481C432.928 156.851 435.914 151.817 438.597 147.676C462.009 111.563 509.604 96.4047 549.766 111.948C574.119 119.19 594.63 135.737 606.865 158.003C617.532 177.61 620.63 203.502 614.308 224.932C613.856 226.442 613.373 227.944 612.863 229.436C606.971 251.572 590.178 271.027 570.628 282.462C547.907 295.797 520.776 299.436 495.345 292.561C486.303 290.108 472.602 284.473 465.42 278.334C504.886 296.998 552.029 280.843 571.76 241.899C591.485 202.954 576.621 155.382 538.227 134.602C499.839 113.822 451.883 127.391 430.07 165.206Z" fill="#FAD226"/>
<path d="M549.766 111.948C574.118 119.19 594.63 135.737 606.864 158.003C617.532 177.61 620.629 203.502 614.307 224.932C613.856 226.442 613.372 227.944 612.862 229.436C611.906 227.554 609.165 219.291 608.007 216.5C603.656 205.983 599.522 195.364 594.922 184.934C583.197 158.371 566.978 135.154 549.766 111.948Z" fill="#FDFDFC"/>
<path d="M489.358 150.238C493.316 149.924 497.295 149.968 501.248 150.367C551.775 155.593 565.662 220.411 528.134 251.03C515.405 261.416 500.934 263.782 484.97 261.976C474.069 259.946 464.283 255.806 455.863 248.44C444.972 238.852 438.305 225.351 437.317 210.873C436.249 193.051 443.331 178.961 454.816 166.022C461.685 177.377 474.823 180.896 481.204 165.652C482.829 161.763 479.7 155.806 477.442 152.247C481.878 151.29 484.864 150.737 489.358 150.238Z" fill="#3B3230"/>
<path d="M481.686 690.82C478.084 685.47 476.145 680.109 475.778 673.628C474.514 650.261 476.283 626.857 475.757 603.448C475.598 596.26 474.631 582.334 477.048 576.012L477.956 575.735C483.099 579.508 481.494 603.607 481.388 610.408C481.112 623.68 481.075 636.957 481.287 650.229C482.052 654.123 481.797 663.087 481.765 667.438C491.153 663.007 501.31 661.886 510.952 666.529C533.993 641.144 552.894 611.088 573.183 583.482C574.134 582.191 575.005 581.171 576.578 580.857C577.162 581.272 577.629 581.351 577.725 582.132C578.554 588.832 540.793 639.369 534.864 647.089C529.514 653.959 524.026 660.722 518.406 667.374C520.802 667.815 524.372 668.139 526.475 669.122C536.304 673.723 537.679 683.138 530.518 690.905C519.394 692.287 504.36 693.737 493.294 691.564C488.082 692.898 486.334 693.142 481.686 690.82Z" fill="#3B3230"/>
<path d="M518.401 667.374C520.797 667.815 524.367 668.139 526.471 669.122C536.299 673.723 537.675 683.138 530.514 690.905C519.389 692.287 504.355 693.737 493.289 691.564C503.388 683.945 509.806 676.576 518.401 667.374Z" fill="#D09D15"/>
<path d="M481.283 650.229C482.048 654.123 481.793 663.086 481.761 667.438C491.148 663.007 501.306 661.886 510.948 666.529C502.166 674.919 497.512 683.425 486.069 688.339C480.156 678.287 481.171 661.615 481.283 650.229Z" fill="#D09D15"/>
<path d="M402.444 653.422L403.427 602.465C403.523 596.546 402.891 578.971 404.734 574.322L405.536 573.578C406.817 574.115 407.183 574.763 407.688 576.065C410.089 582.254 408.485 658.634 407.3 670.737C406.806 675.753 406.142 681.305 403.831 685.863C402.816 687.856 401.621 689.237 399.799 690.512C387.718 689.492 376.174 673.542 367.881 664.861C359.307 654.819 308.616 590.845 308.438 582.722C308.425 582.153 308.61 581.532 308.747 580.99L309.688 580.251C311.817 580.538 313.592 582.536 314.757 584.252C334.205 612.9 354.775 643.333 379.144 668.155C384.143 666.832 396.978 666.981 401.94 667.353C401.95 663.389 401.77 657.146 402.444 653.422Z" fill="#3B3230"/>
<path d="M401.937 667.353C401.947 663.39 401.767 657.147 402.441 653.422C402.627 664.218 402.813 674.791 399.047 685.114C392.99 681.852 384.018 673.394 379.141 668.155C384.14 666.832 396.975 666.981 401.937 667.353Z" fill="#D09D15"/>
<path d="M355.732 690.89L357.613 690.294C357.262 689.046 348.597 687.091 346.799 684.822C342.978 680.003 342.879 674.573 347.332 670.179C353.323 664.277 360.253 664.765 367.876 664.861C376.169 673.543 387.713 689.492 399.794 690.512L399.773 691.097C396.936 690.985 393.419 691.113 390.561 691.23C378.942 691.697 367.308 690.9 355.732 690.89Z" fill="#D09D15"/>
<path d="M109.555 517.568L112.712 516.102C114.275 519.975 112.063 534.607 110.984 538.773C108.083 549.967 103.581 596.132 98.1148 602.853L97.1092 603.119C92.4884 598.741 107.758 528.641 109.555 517.568Z" fill="#3B3230"/>
<path d="M316.624 349.347C341.767 348.862 368.225 349.267 393.459 349.271L422.986 349.34C426.312 349.341 434.052 348.36 436.416 350.079L436.608 351.895C439.604 356.608 448.8 395.458 451.451 403.78C452.306 406.468 453.995 414.592 455.419 416.903C454.537 427.412 456.997 431.609 462.15 440.636C462.007 445.035 473.753 485.01 475.538 491.662L397.98 512.34C386.718 515.305 372.698 519.497 361.691 521.861L354.312 494.68C356.394 494.627 358.806 494.632 360.851 494.441C347.676 493.862 330.214 494.382 316.706 494.51L316.477 452.516C322.576 443.781 330.031 434.26 331.523 423.454C333.052 412.376 326.881 407.685 316.536 407.074C316.615 392.675 316.609 378.279 316.519 363.883L316.624 349.347Z" fill="#FDFDFC"/>
<path d="M436.608 351.895C439.605 356.608 448.801 395.458 451.452 403.78C452.307 406.468 453.996 414.592 455.42 416.903C454.538 427.412 456.998 431.609 462.151 440.636C462.007 445.035 473.753 485.01 475.538 491.662L397.981 512.341C386.719 515.305 372.699 519.497 361.692 521.861L354.312 494.68C356.395 494.627 358.807 494.632 360.852 494.441C384.827 493.724 412.325 494.372 436.582 494.42L436.608 351.895Z" fill="#F86B06"/>
<path d="M334.117 420.638C340.416 419.963 416.016 420 418.152 420.691C418.88 420.925 419.145 422.157 419.443 422.837C416.478 423.491 397.061 423.278 392.987 423.252C373.824 423.146 354.423 423.427 335.279 423.204C334.109 422.327 334.482 422.556 334.117 420.638Z" fill="#3B3230"/>
<path d="M333.984 441.773C342.56 441.21 356.679 441.64 365.61 441.656C382.796 441.683 400.646 441.385 417.752 441.715C419.096 442.586 418.66 442.256 419.176 444.307C411.743 444.738 335.74 444.631 334.323 443.824L333.984 441.773Z" fill="#3B3230"/>
<path d="M333.992 378.053C341.772 377.691 417.292 377.749 418.758 378.662L419.167 380.565C413.228 381.051 337.879 381.339 335.272 380.663C334.911 380.569 334.644 380.259 334.33 380.057L333.992 378.053Z" fill="#3B3230"/>
<path d="M333.898 463.052C335.775 463.004 342.775 462.797 344.249 462.951C353.755 463.939 414.757 461.357 418.848 463.599L419.177 465.538C410.576 465.974 336.62 466.394 334.361 465.033L333.898 463.052Z" fill="#3B3230"/>
<path d="M333.898 399.312C341.301 398.961 417.18 398.897 418.805 399.87L419.161 401.825C415.055 402.08 409.801 402.016 405.678 401.894C382.495 401.214 358.349 402.818 335.302 401.862C333.854 400.789 334.462 401.49 333.898 399.312Z" fill="#3B3230"/>
<path d="M253.062 352.002C260.818 345.468 272.797 333.094 280.299 325.742L316.517 363.883C316.606 378.279 316.612 392.675 316.533 407.074C313.143 407.462 310.424 407.956 307.066 408.609C289.29 390.522 270.423 370.57 253.062 352.002Z" fill="#F86B06"/>
<path d="M455.418 416.903C459.828 407.095 467.361 405.761 477.29 408.073C499.129 413.157 520.109 422.853 541.066 430.759C543.781 431.79 547.558 432.342 549.051 434.856C548.807 436.694 549.173 435.897 547.792 437.273C544.743 438.07 536.71 434.319 533.491 433.256C503.661 423.406 425.589 384.254 477.986 452.957C489.987 468.694 503.093 484.808 515.97 499.988C517.691 502.023 520.704 505.327 519.806 508.064C518.201 508.834 519.057 508.648 517.107 508.372C510.36 503.988 468.2 449.95 462.149 440.636C456.996 431.609 454.536 427.412 455.418 416.903Z" fill="#3B3230"/>
<path d="M316.535 407.074C326.881 407.685 333.051 412.376 331.522 423.454C330.031 434.26 322.576 443.781 316.476 452.516C304.325 469.135 290.513 485.053 277.261 500.816C275.017 503.489 271.295 508.552 267.552 508.207L266.734 507.203C266.684 505.912 267.03 505.184 267.744 504.153C272.154 497.788 277.822 491.832 282.776 485.855C293.946 472.376 305.346 458.743 315.393 444.408C319.837 438.065 328.204 426.673 326.42 418.513C326.055 416.844 324.95 415.346 323.497 414.459C311.276 406.989 257.353 433.814 242.373 437.204C240.606 437.602 239.721 437.608 238.204 436.614C238.026 435.445 237.97 435.025 238.774 434.011C240.888 431.338 298.979 410.479 307.068 408.609C310.426 407.956 313.145 407.462 316.535 407.074Z" fill="#3B3230"/>
<path d="M398.012 247.967C401.646 247.867 404.547 247.428 406.576 250.772C406.964 254.376 405.083 256.203 402.963 259.223C407.729 306.577 424.585 263.197 428.309 275.561C427.693 281.243 419.443 286.058 414.337 287.269C407.707 285.947 405.869 284.434 401.311 279.903L400.913 279.509C399.128 279.437 391.499 285.96 386.086 287.36C380.38 285.812 373.862 280.991 371.891 275.268C373.92 266.9 387.265 286.613 393.029 279.732C397.088 274.887 397.178 265.239 397.231 259.604C394.378 255.314 390.803 250.129 398.012 247.967Z" fill="#3B3230"/>
</svg>
