<svg width="1024" height="1024" viewBox="0 0 1024 1024" fill="none" xmlns="http://www.w3.org/2000/svg">
<path d="M557.556 385.68C561.606 383.074 565.451 379.749 569.946 377.91C579.661 373.939 590.346 372.794 600.021 368.816C601.741 368.11 605.796 366.282 607.091 365.093C622.791 350.652 614.986 393.632 613.211 399.944C619.741 402.644 625.276 407.947 632.326 409.402C645.396 412.099 693.746 408.2 699.231 421.285C700.706 424.81 699.081 429.046 697.591 432.308C694.541 438.979 690.396 445.132 687.016 451.631C684.226 456.991 682.151 463.092 678.671 468.026C679.656 473.944 679.716 485.589 680.296 488.354C683.791 497.342 686.711 507.12 689.881 516.295C693.431 526.295 697.171 536.22 701.111 546.075C702.471 549.53 707.036 561.49 709.151 563.825C713.711 568.86 724.501 575.535 730.401 579.82C753.336 596.495 776.631 612.91 800.401 628.345C807.656 633.135 815.021 637.77 822.481 642.24C831.146 647.455 841.611 653.145 849.056 659.9C852.811 663.31 854.626 668 855.836 672.815C852.931 682.255 846.891 686.995 838.486 691.56C821.306 700.88 797.031 695.53 779.636 689.405C772.456 686.875 755.726 681.855 749.176 678.055C748.376 678.48 746.411 679.59 745.671 679.895C749.736 693.52 759.241 717.525 761.856 730.05L764.976 731.5C788.376 732.05 810.826 731.385 834.136 731.49C853.951 731.975 874.601 729.54 893.796 735.415C938.636 749.13 962.821 801.555 948.666 845.335C941.321 867.47 925.606 885.845 904.886 896.545C884.971 906.64 866.746 905.725 845.136 905.605C833.756 905.54 822.286 905.6 810.901 905.595L699.131 905.58L507.231 905.575H449.576C439.295 905.585 427.396 905.27 417.273 905.64C393.809 906.5 376.276 901.11 365.034 878.96C357.945 864.99 360.477 853.84 361.974 838.735C363.029 827.37 364.212 816.01 365.522 804.67C369.879 764.795 375.049 725.015 381.028 685.355C382.628 674.845 386.564 645.61 389.615 636.605C388.385 635.135 388.279 634.8 387.448 633.035C389.794 624.35 391.955 611.64 393.755 602.675C397.602 583.28 401.904 563.975 406.656 544.78C408.628 536.835 411.035 526.16 413.586 518.685L416.497 517.68C416.498 512.135 425.017 487.487 428.435 483.04C427.255 478.91 426.068 474.869 425.375 470.621C422.777 455.302 426.412 439.58 435.47 426.956C445.752 412.657 460.779 404.153 478.132 402.601C480.552 402.384 483.077 402.144 485.469 401.745C500.481 390.556 538.676 382.63 557.556 385.68Z" fill="#FAD42E"/>
<path d="M557.556 385.68C561.606 383.074 565.451 379.749 569.946 377.91C579.661 373.939 590.346 372.794 600.021 368.816C601.741 368.11 605.796 366.282 607.091 365.093C622.791 350.652 614.986 393.632 613.211 399.944C619.741 402.644 625.276 407.947 632.326 409.402C645.396 412.099 693.746 408.2 699.231 421.285C700.706 424.81 699.081 429.046 697.591 432.308C694.541 438.979 690.396 445.132 687.016 451.631C684.226 456.991 682.151 463.092 678.671 468.026C679.656 473.944 679.716 485.589 680.296 488.354C678.951 493.199 678.096 497.907 676.411 502.675C671.666 515.795 662.331 526.75 650.136 533.53C636.096 541.325 619.521 543.185 604.106 538.69C589.471 534.45 576.361 523.505 569.126 510.135L567.306 506.72C565.391 507.39 563.786 508.065 561.761 508.305C554.796 507.845 552.266 505.425 548.681 499.709C543.686 504.295 541.726 505.155 535.071 504.745C531.356 502.625 531.351 502.905 528.036 500.115C522.581 505.875 516.621 510.78 509.486 514.34C495.353 521.3 479.02 522.305 464.138 517.135C446.317 511.025 436.45 499.303 428.434 483.04C427.255 478.91 426.067 474.869 425.374 470.621C422.776 455.302 426.411 439.58 435.47 426.956C445.751 412.657 460.779 404.153 478.131 402.601C480.552 402.384 483.076 402.144 485.469 401.745C500.481 390.556 538.676 382.63 557.556 385.68Z" fill="#373735"/>
<path d="M557.556 385.68C561.606 383.074 565.451 379.749 569.946 377.91C579.661 373.939 590.346 372.794 600.021 368.816C601.741 368.11 605.796 366.282 607.091 365.093C622.791 350.652 614.986 393.632 613.211 399.944C619.741 402.644 625.276 407.947 632.326 409.402C645.396 412.099 693.746 408.2 699.231 421.285C700.706 424.81 699.081 429.046 697.591 432.308C694.541 438.979 690.396 445.132 687.016 451.631C684.226 456.991 682.151 463.092 678.671 468.026C677.896 465.294 677.001 462.302 675.926 459.686C669.941 444.899 658.261 433.135 643.521 427.038C628.806 421.072 612.321 421.242 597.731 427.51C580.531 434.933 571.396 446.991 564.636 463.799C556.371 458.956 551.791 459.033 542.801 460.484C541.896 432.044 523.066 408.906 494.9 403.274C491.802 402.655 488.595 402.223 485.469 401.745C500.481 390.556 538.676 382.63 557.556 385.68Z" fill="#FAD42E"/>
<path d="M557.556 385.68C561.606 383.074 565.451 379.749 569.946 377.91C579.661 373.939 590.346 372.794 600.021 368.816C601.741 368.11 605.796 366.282 607.091 365.093C622.791 350.652 614.986 393.632 613.211 399.944C607.896 412.348 600.751 421.682 587.931 426.898C577.841 430.967 566.536 430.822 556.556 426.496C553.836 425.332 551.201 423.96 548.931 422.044C544.691 423.931 536.981 427.152 532.471 425.484C531.326 424.031 531.591 424.836 531.651 422.985C533.911 420.372 542.991 418.46 546.551 417.51C546.021 403.615 549.396 396.321 557.556 385.68Z" fill="#7FB55C"/>
<path d="M546.551 417.511C558.591 413.22 566.281 408.546 576.881 401.872C582.731 398.193 593.031 386.871 596.741 385.723L597.506 386.16C597.786 387.633 597.416 389.045 596.421 390.181C585.566 402.632 570.521 413.436 555.191 419.671C554.011 420.152 549.931 421.874 548.931 422.045C544.691 423.932 536.981 427.152 532.471 425.485C531.326 424.032 531.591 424.837 531.651 422.985C533.911 420.372 542.991 418.461 546.551 417.511Z" fill="#478443"/>
<path d="M577.943 456.469C590.618 434.999 617.158 426.123 640.198 435.649C663.243 445.176 675.763 470.201 669.578 494.355C663.388 518.51 640.378 534.43 615.593 531.705C590.808 528.98 571.808 508.44 571.013 483.517C570.713 474.027 573.118 464.646 577.943 456.469Z" fill="#FAD42E"/>
<path d="M576.605 484.806C583.975 455.889 610.086 447.99 634.271 464.294C624.866 475.66 634.03 483.799 644.12 477.112C646.85 485.619 647.951 491.991 645.961 500.935C643.541 500.33 640.87 499.519 638.475 498.773C618.155 492.451 597.61 488.306 576.605 484.806Z" fill="#373735"/>
<path d="M577.943 456.469C578.198 456.332 578.448 456.194 578.703 456.057C590.693 445.9 605.558 440.891 621.548 444.986C634.063 448.138 644.748 456.257 651.138 467.467C658.163 479.534 659.148 490.875 655.738 504.145C652.478 503.01 649.293 501.85 645.958 500.935C647.948 491.992 646.848 485.619 644.118 477.113C634.028 483.8 624.863 475.661 634.268 464.295C610.083 447.991 583.973 455.89 576.603 484.807C575.093 484.24 572.668 483.852 571.013 483.517C570.713 474.027 573.118 464.646 577.943 456.469Z" fill="#FEFEFE"/>
<path d="M469.503 413.324C493.823 405.667 522.041 419.251 530.361 443.495C535.256 455.915 534.091 466.699 530.381 479.106C530.031 471.551 530.081 468.367 527.991 461.049C515.316 466.493 508.281 457.307 518.331 447.777C509.996 441.267 501.126 437.914 490.408 439.275C481.277 440.43 472.982 445.174 467.356 452.458C462.271 459.077 460.406 466.296 459.838 474.479C485.289 474.123 505.556 474.38 530.651 478.197C528.751 482.851 526.726 486.773 523.706 490.838C515.651 501.745 503.541 508.945 490.11 510.815C477.044 512.495 463.84 508.99 453.327 501.05C442.244 492.591 436.044 481.262 434.136 467.601C431.28 442.825 445.497 420.498 469.503 413.324Z" fill="#FAD42E"/>
<path d="M447.832 475.36C447.967 463.779 449.922 454.69 457.221 445.398C464.89 435.569 476.132 429.169 488.499 427.592C500.015 426.222 511.47 428.791 520.845 435.684C524.36 438.268 526.545 440.58 529.565 442.895L530.36 443.495C535.255 455.916 534.09 466.7 530.38 479.107C530.03 471.552 530.08 468.368 527.99 461.05C515.315 466.494 508.28 457.308 518.33 447.778C509.995 441.268 501.125 437.915 490.408 439.275C481.277 440.431 472.982 445.175 467.356 452.459C462.271 459.077 460.406 466.296 459.838 474.479C455.841 474.843 451.839 475.137 447.832 475.36Z" fill="#FEFEFE"/>
<path d="M434.136 467.601C431.28 442.825 445.497 420.499 469.503 413.324L468.854 414.055C466.368 416.818 463.659 419.115 460.997 422.224C453.097 431.448 447.738 440.327 442.12 450.903C441.025 452.964 434.031 467.742 434.136 467.601Z" fill="#FEFEFE"/>
<path d="M548.805 468.622C554.495 468.198 557.705 469.75 562.425 472.541C560.86 483.594 562.335 491.207 565.225 501.605C565.635 503.09 565.32 503.15 564.54 504.185C558.82 506.58 553.865 500.77 551.23 496.365C553.585 493.082 559.075 489.848 558.71 486.618C557.53 485.073 556.13 484.65 554.345 483.807C551.855 483.031 546.63 481.806 544.375 483.434C539.975 486.611 545.685 491.617 547.825 493.805C542.29 500.44 537.94 503.61 530.555 497.535C537.41 487.386 539.53 481.906 542.255 470.037C544.27 469.471 546.725 469.043 548.805 468.622Z" fill="#FAD42E"/>
<path d="M413.583 518.685L416.494 517.68C417.059 519.47 417.124 520.27 416.643 522.145C412.281 539.15 407.993 556.2 404.086 573.315C401.532 584.72 399.084 596.15 396.742 607.6C395.487 613.72 392.545 631.78 389.612 636.605C388.382 635.135 388.276 634.8 387.445 633.035C389.792 624.35 391.953 611.64 393.753 602.675C397.6 583.28 401.901 563.975 406.654 544.78C408.626 536.835 411.033 526.16 413.583 518.685Z" fill="#373735"/>
<path d="M548.68 499.709C552.265 505.425 554.795 507.845 561.76 508.305C558.98 508.48 559.585 509.36 557.965 511.405C547.22 524.96 539.895 517.895 535.07 504.745C541.725 505.155 543.685 504.295 548.68 499.709Z" fill="#FD6362"/>
<path d="M745.669 679.895C743.479 677.85 734.719 675.055 731.699 673.425C726.454 670.595 691.119 653.3 691.129 648.115L691.834 647.54C694.839 647.59 700.364 650.94 702.834 652.67C712.944 659.73 723.569 664.915 734.714 670.07C739.564 672.31 744.874 674.785 749.174 678.055C748.374 678.48 746.409 679.59 745.669 679.895Z" fill="#373735"/>
<path d="M761.855 730.05L764.975 731.5C769.66 745.84 774.185 760.235 778.55 774.675C779.36 777.42 781.995 785.875 782.12 788.285C781.21 789.635 781.805 789.165 780.26 789.725C777.175 788.44 775.171 777.395 774.401 774.115C771.351 761.17 762.12 742.975 761.855 730.05Z" fill="#373735"/>
<path d="M233.841 210.075C234.655 189.492 240.861 177.86 263.345 184.195C275.446 186.112 284.519 188.243 296.374 190.685L407.412 212.264L439.868 218.601C458.955 222.319 479.916 222.394 474.539 248.259C473.94 251.012 473.309 253.758 472.645 256.495C479.137 258.622 487.712 259.719 494.547 260.845C503.105 262.201 511.63 263.766 520.11 265.539C526.825 266.914 539.1 268.719 542.465 275.405C546.985 284.384 542.905 297.279 540.16 306.27C526.835 348.603 498.542 381.729 458.839 401.769C444.436 408.986 429.055 414.059 413.185 416.828C409.843 417.388 393.232 419.199 391.59 420.274C371.448 433.458 358.249 443.431 332.388 444.038C331.818 446.757 330.464 452.515 330.258 455.027C342.801 463.142 351.296 470.685 362.869 479.896C374.099 488.819 385.478 497.554 397 506.095C401.395 509.395 409.351 516.12 413.585 518.685C411.034 526.16 408.627 536.835 406.655 544.78C401.903 563.975 397.601 583.28 393.754 602.675C391.954 611.64 389.793 624.35 387.447 633.035C374.204 615.97 357.6 594.275 345.624 576.56C341.199 573.79 305.128 568.195 296.597 566.37C275.08 561.77 250.151 557.72 228.301 553.22C219.912 551.495 206.168 550.23 198.628 547.165C197.729 545.965 197.63 546.215 197.774 544.785C199.431 528.335 214.737 534.355 219.098 530.385C224.373 520.715 229.407 523.47 238.778 521.605C251.263 519.12 263.131 510.095 273.053 502.39C261.298 488.625 267.622 453.998 282.601 443.663C287.492 440.288 292.602 440.785 298.04 442.116L297.784 436.838C270.526 423.77 266.86 413.62 250.981 390.729C225.272 378.61 211.519 369.752 192.515 347.92C165.146 316.479 148.931 274.032 152.218 232.168C153.337 223.053 153.318 207.863 160.845 201.535C167.912 195.593 181.177 200.104 189.311 201.408C203.517 203.686 218.689 208.505 232.907 209.983L233.841 210.075ZM228.177 237.792C212.807 234.887 197.354 231.054 182.108 228.356C181.508 237.266 180.929 246.421 181.689 255.358C184.473 288.074 200.496 320.057 225.834 341.1C228.081 342.966 230.979 346.875 233.874 347.296L234.388 346.917C224.597 307.726 223.31 277.861 228.177 237.792ZM420.998 386.701C431.642 382.859 443.848 378.325 452.872 371.589C458.391 368.191 474.066 356.888 478.841 352.201C488.449 342.768 500.415 325.657 506.05 313.637C508.96 307.435 511.77 299.171 514.045 292.638C503.4 291.553 492.028 288.436 481.463 286.438C477.171 285.626 471.046 283.949 466.802 283.879C457.864 325.276 444.318 352.286 420.998 386.701Z" fill="#FEBE02"/>
<path d="M371.843 561.24C370.414 547.82 362.135 548.915 353.626 542.02C338.627 529.86 330.572 511.055 327.906 492.294C326.019 479.019 327.656 468.07 330.258 455.027C342.8 463.142 351.295 470.685 362.868 479.896C374.098 488.819 385.477 497.554 396.999 506.095C401.395 509.395 409.35 516.12 413.584 518.685C411.034 526.16 408.627 536.835 406.655 544.78C401.902 563.975 397.601 583.28 393.754 602.675C391.954 611.64 389.793 624.35 387.446 633.035C374.203 615.97 357.599 594.275 345.623 576.56C349.09 576.23 380.226 582.705 386.007 583.85C386.172 571.7 385.08 564.795 371.843 561.24Z" fill="#FAD42E"/>
<path d="M263.344 184.194C275.445 186.111 284.518 188.242 296.373 190.685C296.22 190.979 296.002 191.369 295.919 191.673C276.942 260.92 265.164 339.472 293.581 407.697C284.119 399.392 276.137 389.539 269.978 378.559C237.952 322.518 247.206 243.659 263.344 184.194Z" fill="#FAD42E"/>
<path d="M345.623 576.56C341.198 573.79 305.127 568.195 296.596 566.37C275.079 561.77 250.15 557.72 228.3 553.22C219.911 551.495 206.167 550.23 198.627 547.165C197.728 545.965 197.629 546.215 197.773 544.785C199.43 528.335 214.736 534.355 219.097 530.385C223.107 533.69 305.648 548.38 318.746 550.93L351.503 557.385C357.633 558.63 365.866 560.645 371.842 561.24C385.08 564.795 386.171 571.7 386.007 583.85C380.225 582.705 349.089 576.23 345.623 576.56Z" fill="#FAA904"/>
<path d="M273.051 502.39C261.296 488.625 267.621 453.998 282.6 443.663C287.491 440.289 292.601 440.785 298.039 442.117C306.112 452.973 311.891 461.183 309.706 475.571C307.552 489.756 301.192 492.887 292.866 501.595C290.111 501.665 285.653 502.89 283.453 504.61C282.136 503.36 275.357 502.72 273.051 502.39Z" fill="#FAD42E"/>
<path d="M283.456 504.61C285.656 502.89 290.113 501.665 292.868 501.595C287.081 513.59 279.277 525.895 265.915 530.75C259.19 533.19 251.211 531.005 244.348 529.49C261.055 524.01 271.89 518.715 283.456 504.61Z" fill="#FAD42E"/>
<path d="M937.179 463.054C944.974 463.015 955.889 466.478 962.709 469.992C959.874 486.254 948.199 500.65 935.784 510.915C930.444 513.045 915.839 504.17 912.469 500.14C912.574 497.323 924.244 484.557 926.839 480.286C929.589 475.758 934.319 466.376 937.179 463.054Z" fill="#32ABE8"/>
<path d="M243.901 626.095C245.743 626.1 247.679 626.075 249.405 626.82C252.27 628.055 271.3 655.475 272.943 659.45C273.522 660.85 273.931 661.89 273.195 663.37C270.817 668.145 262.427 672.76 257.558 674.5C251.401 673.545 246.271 668.525 242.563 663.59C237.31 656.6 225.065 643.33 228.191 633.805C229.274 630.505 240.561 626.89 243.901 626.095Z" fill="#32ABE8"/>
<path d="M83.5091 96.1408C87.6801 95.5293 90.3226 96.9658 92.5961 100.457C96.4551 106.383 99.8156 112.324 103.821 118.206C105.91 121.272 114.88 129.214 112.395 132.588C108.916 137.31 100.147 142.155 94.6741 144.159C85.6596 143.723 67.9816 116.321 65.6606 107.856C63.5456 100.141 78.1746 97.0598 83.5091 96.1408Z" fill="#32ABE8"/>
<path d="M786.436 483.975C787.956 484.203 789.221 484.594 790.131 485.867C794.191 491.54 797.071 498.435 800.746 504.35C804.466 510.345 809.591 516.105 814.096 521.565C808.826 525.225 798.466 530.72 792.791 533.115C780.261 528.135 768.681 506.195 764.586 494.078C770.041 490.26 780.086 486.36 786.436 483.975Z" fill="#FD6362"/>
<path d="M394.081 100.051C399.451 99.894 400.426 103.373 402.594 108.048C407.625 118.894 415.364 126.908 422.076 136.527C416.674 140.614 407.505 145.571 401.39 148.018C394.082 146.793 371.881 117.862 374.708 108.866C375.952 104.908 389.293 101.327 394.081 100.051Z" fill="#FD6362"/>
<path d="M954.121 691.745C960.776 694.735 970.016 704.2 976.716 708.725C983.176 713.085 989.711 717.015 996.146 721.345C998.001 722.59 1000.24 724.095 1000.3 726.22C1000.44 731.235 995.916 736.385 993.091 740.115C989.781 743.665 987.716 745.035 983.676 747.57C969.446 739.275 953.821 708.48 954.121 691.745Z" fill="#FD6362"/>
<path d="M64.393 631.625C71.713 632.645 81.817 644.09 88.1875 649.08C106.201 663.185 118.782 658.25 101.393 679.86C99.2205 682.24 97.9225 686.02 94.6175 687.55C92.263 687.435 90.7315 686.17 89.2525 684.38C79.1855 672.21 63.5915 647.435 64.393 631.625Z" fill="#FEBE02"/>
<path d="M898.373 372.071C902.413 371.901 909.818 372.617 912.748 375.759C919.063 382.526 926.568 389.621 931.388 397.486C935.903 404.853 923.003 409.219 918.038 411.334C916.223 411.815 913.078 412.328 911.788 411.141C906.068 405.881 886.093 385.701 884.078 379.616C885.833 375.196 894.043 373.078 898.373 372.071Z" fill="#FEBE02"/>
<path d="M34.3652 449.707C39.9827 450.075 55.5795 454.13 51.703 462.576C47.6303 471.447 32.722 483.975 24.0734 488.336C15.4843 487.934 -0.208341 480.604 9.13685 470.365C14.9138 464.036 25.7662 450.993 34.3652 449.707Z" fill="#FD6362"/>
<path d="M223.311 833.055C230.387 832.92 244.319 836.375 251.538 838.045C245.046 851.11 235.568 858.805 223.555 866.905C221.183 867.835 219.107 868.3 216.59 867.48C212.981 866.305 199.098 862.275 197.547 859.57C198.761 857.53 208.118 850.235 210.961 847.185C214.726 843.145 219.585 836.205 223.311 833.055Z" fill="#BB85F2"/>
<path d="M623.168 220.134C624.143 219.953 627.513 219.974 628.043 220.662C635.808 230.727 644.898 238.326 653.858 247.121C646.693 250.071 639.388 252.657 631.968 254.869C625.138 253.072 598.928 232.518 602.073 225.6C605.463 223.337 618.608 220.94 623.168 220.134Z" fill="#FEBE02"/>
<path d="M788.204 266.486C793.484 266.352 804.419 270.55 807.529 274.851C809.394 282.408 788.219 297.915 782.574 301.339C776.449 302.811 767.424 298.416 764.344 294.252C760.239 288.711 784.319 269.464 788.204 266.486Z" fill="#BB85F2"/>
<path d="M658.044 70.1507C660.304 70.0152 664.419 69.6302 665.594 72.3342C667.209 76.0642 669.219 90.0572 664.604 92.0172C660.949 93.5682 654.384 94.7712 650.324 95.7937C645.744 96.9477 641.249 98.4077 636.864 100.164C634.984 101.011 633.074 101.976 631.214 102.884C630.734 101.701 630.279 100.507 629.859 99.3027C627.529 92.5417 627.309 86.6052 630.459 80.1032C637.074 75.0872 649.899 71.2432 658.044 70.1507Z" fill="#FEBE02"/>
<path d="M909.342 586.62C910.812 586.355 910.822 586.215 912.187 586.72C913.922 591.2 905.972 616.53 903.732 621.66C896.197 617.045 888.847 612.13 881.697 606.935C875.802 603.12 868.982 598.82 863.617 594.39C878.242 591.26 894.397 589.65 909.342 586.62Z" fill="#FEBE02"/>
<path d="M128.333 326.443C131.251 327.968 140.312 355.002 141.897 359.712C131.878 360.548 118.523 360.159 107.88 360.705C102.89 361.167 99.1442 361.469 94.0938 361.516C98.4773 354.036 121.502 330.368 128.333 326.443Z" fill="#FEBE02"/>
<path d="M670.859 333.591C675.024 334.763 698.244 347.622 698.934 351.223C696.894 354.739 681.614 363.578 677.609 366.074C671.154 369.869 665.499 373.561 658.844 377.146C663.194 362.669 666.484 348.113 670.859 333.591Z" fill="#BB85F2"/>
<path d="M292.9 715.575C298.243 716.625 317.241 727.15 322.03 730.44C317.527 734.62 307.235 741.33 301.739 745.07C295.325 749.185 289.643 753.215 283.445 757.665C287.321 745.71 288.934 726.075 292.9 715.575Z" fill="#FD6362"/>
<path d="M267.995 63.8086L268.992 64.3006C269.688 67.3561 266.349 95.1966 265.857 100.632C257.933 98.2236 249.919 95.5801 242.017 93.0586C239.489 92.3771 235.37 90.8216 232.77 89.9341C240.109 82.5406 259.278 69.6396 267.995 63.8086Z" fill="#BB85F2"/>
<path d="M141.363 519.11C144.949 520.375 152.349 542.135 154.094 546.93C145.156 546.86 135.598 547.475 126.624 547.87C121.951 547.84 117.278 547.91 112.609 548.08C117.59 542.015 135.266 524.515 141.363 519.11Z" fill="#32ABE8"/>
<path d="M839.547 95.6616C843.352 96.9571 853.712 106.101 857.742 108.923C862.197 112.043 870.057 116.481 873.712 119.858C871.992 123.692 870.357 125.805 867.872 129.247C859.287 142.297 855.462 132.887 849.852 123.538C844.882 115.251 841.197 105.202 839.547 95.6616Z" fill="#FD6362"/>
<path d="M498.952 142.712C500.703 142.399 506.013 142.478 508.088 142.467C503.593 149.061 488.108 165.038 482.091 171.365C480.887 172.675 478.629 175.525 477.096 175.745C475.814 173.309 476.383 148.818 476.563 144.582C483.933 144.129 491.574 143.36 498.952 142.712Z" fill="#32ABE8"/>
</svg>
