<svg width="685" height="658" viewBox="0 0 685 658" fill="none" xmlns="http://www.w3.org/2000/svg">
<path d="M252.648 83.5759C255.528 78.2706 261.701 69.7328 265.473 64.7425C279.371 45.8079 285.543 28.1973 299.441 8.82461C321.911 -22.5068 326.223 39.6009 335.621 40.3721C345.273 41.1635 384.513 37.2408 398.396 40.6346C403.871 41.9722 421.728 44.7029 426.431 44.9865C433.353 31.799 450.798 -18.2968 466.511 12.6048C472.533 24.4517 476.756 37.8837 482.883 49.9677C486.881 58.0156 491.283 65.855 496.076 73.4559C498.131 76.6644 503.636 84.2015 505.076 86.9464C574.593 103.309 612.243 162.725 583.473 231.144C588.348 242.342 592.196 257.246 595.976 269.006C624.551 357.841 643.121 448.511 662.493 539.67L676.931 608.39C678.626 616.514 687.768 650.708 682.706 656.266C675.333 658.329 632.561 657.549 622.091 657.534L498.213 657.497L472.488 657.617L464.681 657.677C460.413 657.557 455.471 657.722 451.143 657.759L444.363 657.549C425.118 656.657 397.128 657.347 377.433 657.632L372.416 657.812L362.801 657.864L355.151 657.617C343.008 657.827 330.858 657.812 318.716 657.572L305.711 657.557C290.733 657.684 275.748 657.654 260.771 657.482L154.008 657.452C131.748 657.459 93.7757 659.087 73.9157 654.166C56.0432 649.837 39.7007 640.663 26.6957 627.654C9.44573 610.483 -0.17752 587.087 0.00248046 562.74C-0.0117695 543.435 5.24573 521.924 19.5632 508.357C41.9057 487.194 74.8757 489.755 102.678 489.923L104.298 488.137C104.501 484.997 108.116 469.52 109.083 465.087C113.328 444.752 118.061 424.522 123.273 404.413C133.278 363.646 144.138 323.094 155.861 282.786C159.723 269.459 165.348 247.604 169.998 235.544C169.811 234.489 165.476 225.143 164.793 223.544C149.891 188.656 155.696 146.594 181.098 118.242C199.428 97.6771 225.153 85.2128 252.648 83.5759Z" fill="#5DCD62"/>
<path d="M252.646 83.5759C255.526 78.2706 261.699 69.7328 265.471 64.7425C279.369 45.8079 285.541 28.1973 299.439 8.82461C321.909 -22.5068 326.221 39.6009 335.619 40.3721C345.271 41.1635 384.511 37.2408 398.394 40.6346C403.869 41.9722 421.726 44.7029 426.429 44.9865C433.351 31.799 450.796 -18.2968 466.509 12.6048C472.531 24.4517 476.754 37.8837 482.881 49.9677C486.879 58.0156 491.281 65.855 496.074 73.4559C498.129 76.6644 503.634 84.2015 505.074 86.9464C574.591 103.309 612.241 162.725 583.471 231.144C568.666 258.15 548.611 276.971 518.394 285.694C490.704 293.677 460.966 290.231 435.834 276.128C411.429 262.458 393.549 239.543 386.221 212.544C384.826 207.563 383.926 202.508 383.161 197.396C376.599 196.99 372.939 196.884 366.219 197.539C361.366 227.488 349.561 250.707 324.324 268.941C301.156 285.522 272.379 292.282 244.254 287.751C216.826 283.263 192.091 267.05 176.026 244.507C173.949 241.563 171.939 238.574 169.996 235.544C169.809 234.489 165.474 225.143 164.791 223.544C149.889 188.656 155.694 146.594 181.096 118.242C199.426 97.6771 225.151 85.2128 252.646 83.5759Z" fill="#37302D"/>
<path d="M252.648 83.5759C255.528 78.2706 261.701 69.7328 265.473 64.7425C279.371 45.8079 285.543 28.1973 299.441 8.82461C321.911 -22.5068 326.223 39.6009 335.621 40.3721C345.273 41.1635 384.513 37.2408 398.396 40.6346C403.871 41.9722 421.728 44.7029 426.431 44.9865C433.353 31.799 450.798 -18.2968 466.511 12.6048C472.533 24.4517 476.756 37.8837 482.883 49.9677C486.881 58.0156 491.283 65.855 496.076 73.4559C498.131 76.6644 503.636 84.2015 505.076 86.9464C499.766 86.161 493.458 85.4191 488.133 85.269C460.451 84.4348 433.593 94.7378 413.568 113.872C392.433 134.005 383.733 157.864 382.991 186.542L366.776 186.413V185.958C366.521 126.355 320.531 84.5871 262.106 83.6014C258.948 83.5481 255.806 83.5541 252.648 83.5759Z" fill="#5DCD62"/>
<path d="M240.573 96.6868C277.511 87.335 330.693 107.679 345.363 144.458C368.666 190.814 353.268 238.2 309.116 264.881C307.728 266.123 304.451 267.873 302.673 268.65C278.613 279.18 255.633 281.623 230.628 272.419C210.888 265.152 194.951 252.672 183.221 235.156C180.183 230.613 176.403 222.108 174.041 217.085C172.331 212.549 170.936 207.901 169.856 203.175C164.636 180.269 168.611 156.229 180.918 136.221C194.351 114.871 216.513 102.316 240.573 96.6868Z" fill="#FEFEFC"/>
<path d="M240.573 96.6868C277.511 87.335 330.693 107.679 345.363 144.458C329.373 126.402 315.078 115.148 289.526 113.581C268.278 112.087 247.346 119.369 231.603 133.726C199.638 162.363 198.446 215.368 227.328 246.785C251.088 272.635 277.466 273.506 309.116 264.881C307.728 266.123 304.451 267.873 302.673 268.65C278.613 279.18 255.633 281.623 230.628 272.419C210.888 265.152 194.951 252.672 183.221 235.156C180.183 230.613 176.403 222.108 174.041 217.085C172.331 212.549 170.936 207.901 169.856 203.175C164.636 180.269 168.611 156.229 180.918 136.221C194.351 114.871 216.513 102.316 240.573 96.6868Z" fill="#5DCD62"/>
<path d="M240.573 96.6868L240.881 97.9134C220.848 119.307 199.451 157.452 187.436 184.064C183.086 193.696 178.811 208.456 174.041 217.085C172.331 212.549 170.936 207.901 169.856 203.175C164.636 180.269 168.611 156.229 180.918 136.221C194.351 114.871 216.513 102.316 240.573 96.6868Z" fill="#FEFEFC"/>
<path d="M286.534 137.885C317.846 134.393 342.926 163.349 341.171 193.865C340.279 208.724 333.521 222.619 322.384 232.491C310.376 243.105 297.199 246.988 281.464 246.094C245.636 242.238 225.859 202.325 239.044 170.222C241.721 163.707 244.954 159.518 249.371 154.238C262.939 171.493 280.084 156.196 271.264 140.755C277.781 138.984 279.866 138.561 286.534 137.885Z" fill="#37302D"/>
<path d="M477.683 96.9914C488.858 95.6028 506.288 97.8376 516.788 101.901C565.793 118.069 592.223 162.784 578.041 213.431C564.488 260.526 511.606 288.197 465.151 275.002C457.336 272.783 441.226 267.04 436.156 261.131C417.368 252.11 403.021 235.873 396.383 216.111C389.738 196.35 391.366 174.743 400.891 156.198C402.368 146.286 413.161 131.285 420.128 123.798C433.103 109.853 458.378 97.2419 477.683 96.9914Z" fill="#FEFEFC"/>
<path d="M477.687 96.9914C488.862 95.6028 506.292 97.8376 516.792 101.901C565.797 118.069 592.227 162.784 578.044 213.431C564.492 260.526 511.609 288.197 465.154 275.002C457.339 272.783 441.229 267.04 436.159 261.131C461.547 273.318 491.547 270.723 514.459 254.357C537.372 237.991 549.56 210.45 546.275 182.482C542.99 154.512 524.75 130.549 498.665 119.942C461.607 104.871 419.172 120.605 400.895 156.198C402.372 146.286 413.164 131.285 420.132 123.798C433.107 109.853 458.382 97.2419 477.687 96.9914Z" fill="#5DCD62"/>
<path d="M516.789 101.901C565.794 118.069 592.224 162.784 578.042 213.431C574.314 206.821 564.504 181.532 560.694 173.009C548.499 145.742 534.939 125.46 516.789 101.901Z" fill="#FEFEFC"/>
<path d="M463.988 138.663C467.401 138.693 470.011 138.798 473.401 139.326C487.156 141.524 499.456 149.147 507.541 160.49C516.211 172.673 518.626 187.361 516.136 201.956C513.541 216.487 505.224 229.366 493.044 237.7C480.781 246.258 467.176 247.97 452.701 245.48C416.911 237.153 399.084 200.6 416.521 167.097C419.116 162.106 422.799 158.091 426.451 153.828C431.776 164.316 440.611 167.359 449.371 158.284C456.361 151.032 449.266 144.538 448.913 141.176C451.576 139.169 460.276 138.947 463.988 138.663Z" fill="#37302D"/>
<path d="M342.167 643.746C333.197 632.186 287.785 574.018 286.18 564.575L287.125 563.605C288.647 563.83 290.312 563.921 291.295 565.422C309.745 593.676 330.152 622.613 353.26 647.212C356.732 650.407 360.445 653.723 362.8 657.864L355.15 657.617L342.167 643.746Z" fill="#211F1C"/>
<path d="M476.792 645.194C489.062 633.146 535.165 565.347 537.122 564.086L538.57 564.286C539.057 565.622 539.68 566.373 538.825 567.755C522.347 594.35 503.327 622.853 482.83 646.356C479.372 650.445 476.485 654.008 472.487 657.617L464.68 657.677L476.792 645.194Z" fill="#37302D"/>
<path d="M444.362 657.549C441.309 647.114 444.017 600.096 443.334 585.954C443.057 580.295 443.027 569.88 443.079 563.903C443.094 562.04 443.492 560.093 444.984 558.81L445.734 559.106C450.054 564.243 448.487 580.385 448.494 587.799C448.352 607.287 448.389 626.769 448.599 646.259C448.509 651.45 448.209 653.318 451.142 657.759L444.362 657.549Z" fill="#37302D"/>
<path d="M374.319 646.342C374.057 618.307 376.307 590.001 375.579 561.923C375.542 560.267 376.269 558.35 377.124 556.959L378.317 556.779C379.554 558.347 380.717 561.036 380.717 563.065C380.679 592.58 380.282 622.201 379.299 651.698C379.239 653.408 378.137 656.049 377.432 657.632L372.414 657.812C374.319 653.513 374.327 650.91 374.319 646.342Z" fill="#37302D"/>
<path d="M104.298 488.137C105.918 490.082 106.743 490.363 106.173 494.273C102.468 519.595 98.0201 545.282 93.2201 570.397C92.5376 570.955 91.9826 571.416 91.5326 571.783L90.3326 571.244C88.1501 565.185 100.668 500 102.678 489.923L104.298 488.137Z" fill="#37302D"/>
<path d="M329.32 644.038L342.167 643.746L355.15 657.617C343.007 657.827 330.857 657.812 318.715 657.572C321.655 650.28 322.832 648.239 329.32 644.038Z" fill="#F4B823"/>
<path d="M448.6 646.259C458.215 640.94 466.045 643.491 476.793 645.194L464.68 657.677C460.413 657.557 455.47 657.722 451.143 657.759C448.21 653.318 448.51 651.45 448.6 646.259Z" fill="#F4B823"/>
<path d="M482.831 646.356C491.553 647.872 495.836 647.917 498.213 657.497L472.488 657.617C476.486 654.008 479.373 650.445 482.831 646.356Z" fill="#F4B823"/>
<path d="M353.262 647.212C360.912 646.146 366.732 644.774 374.322 646.342C374.329 650.91 374.322 653.513 372.417 657.812L362.802 657.864C360.447 653.723 356.734 650.407 353.262 647.212Z" fill="#F4B823"/>
<path d="M369.432 232.917C373.617 232.618 379.677 231.177 381.042 236.015C380.419 239.037 378.919 240.399 376.939 242.718C377.179 249.572 379.984 274.117 393.709 260.794C395.884 258.683 394.482 256.974 398.352 255.508C405.222 260.269 391.332 278.248 376.714 264.353L375.207 262.2C373.054 261.342 368.149 267.831 363.477 269.461C356.397 271.933 345.274 261.48 348.627 256.564C349.294 256.465 350.089 256.346 351.004 256.208C354.117 259.507 358.017 263.65 362.854 263.926C364.339 264.004 366.034 263.332 367.062 262.27C368.862 260.407 369.544 258.072 370.302 255.65C371.547 251.698 371.374 247.527 371.299 243.417C368.374 238.642 366.582 237.752 369.432 232.917Z" fill="#37302D"/>
</svg>
